{"glyphs":{"0":{"ha":628,"x_min":0,"x_max":0,"o":"m 314 -19 b 424 7 354 -19 390 -10 b 272 119 361 17 311 64 b 189 361 222 196 192 260 b 88 533 111 390 88 461 b 147 707 88 596 108 660 b 28 372 75 639 28 522 b 314 -19 28 163 132 -19 z m 433 18 b 461 31 443 18 450 22 b 600 372 550 100 600 233 b 314 776 600 644 456 776 b 172 719 257 776 214 764 b 99 532 125 669 99 594 b 271 358 99 447 136 358 b 396 483 335 358 396 410 b 294 600 396 539 358 600 b 240 588 278 600 260 597 b 279 532 250 586 279 560 b 249 499 279 521 272 499 b 215 535 233 499 215 507 b 314 658 215 596 268 658 b 439 396 383 658 439 540 b 314 149 439 267 404 149 b 258 167 292 149 274 156 b 339 63 281 126 304 92 b 433 18 371 35 411 18 z "},"1":{"ha":254,"x_min":0,"x_max":0,"o":"m 226 0 b 207 111 207 28 207 75 l 207 625 b 226 776 207 664 207 749 l 217 776 b 28 636 181 719 96 661 b 65 381 65 579 65 567 b 226 0 65 218 104 60 z m 46 0 b 138 6 75 3 107 6 b 201 3 160 6 182 4 b 65 240 132 42 79 124 l 65 111 b 46 0 65 74 64 28 z "},"2":{"ha":549,"x_min":0,"x_max":0,"o":"m 403 -10 b 521 140 483 -4 521 69 b 517 183 521 154 519 169 l 510 183 b 464 151 503 160 488 151 b 301 175 424 151 364 176 b 107 65 247 174 181 147 b 183 153 129 101 150 126 b 489 601 207 318 489 401 b 376 754 489 674 438 726 l 361 756 b 199 635 294 756 231 685 b 269 654 218 647 242 654 b 381 576 324 654 381 626 b 28 63 381 479 28 367 b 35 -10 28 39 29 15 b 176 22 88 14 133 22 b 403 -10 260 22 328 -10 z m 163 510 b 156 551 157 524 156 538 b 167 604 156 568 160 588 b 346 765 201 679 278 756 b 271 776 324 772 286 776 b 35 599 117 776 35 682 b 163 510 35 544 83 510 z "},"3":{"ha":579,"x_min":0,"x_max":0,"o":"m 150 4 b 124 104 132 35 124 69 b 224 267 124 186 175 264 b 132 325 201 304 167 325 b 28 182 79 325 28 278 b 150 4 28 90 79 32 z m 282 -19 b 551 228 444 -19 551 74 b 419 418 551 344 494 396 b 350 429 382 429 360 428 b 431 428 368 429 404 429 b 517 586 479 474 517 524 b 406 739 517 651 468 739 b 236 654 322 739 253 672 b 279 663 249 660 263 663 b 385 576 344 663 385 625 b 265 469 385 511 322 469 b 236 474 256 469 246 471 b 243 411 240 451 243 431 b 236 350 243 390 240 369 b 272 354 249 353 261 354 b 406 276 339 354 394 307 b 414 232 411 263 414 246 b 306 129 414 176 375 129 b 197 215 249 129 197 161 b 206 249 197 226 200 239 b 135 106 163 224 135 157 b 151 28 135 79 142 53 b 190 -8 160 11 163 -1 b 282 -19 219 -17 250 -19 z m 175 524 b 171 553 172 533 171 543 b 188 613 171 574 176 594 b 404 751 233 683 317 750 b 282 776 367 768 322 776 b 58 610 181 776 58 713 b 169 524 58 563 108 524 z "},"4":{"ha":613,"x_min":0,"x_max":0,"o":"m 343 0 b 439 6 375 4 407 6 l 485 4 b 361 133 422 36 379 88 b 343 0 360 90 361 33 z m 521 1 b 503 110 504 36 503 72 l 503 164 b 585 328 553 181 578 236 l 575 328 b 503 300 569 308 542 301 l 460 300 b 503 313 476 303 493 307 l 503 619 b 521 767 503 656 503 739 b 436 761 494 764 463 761 b 343 767 410 761 376 765 b 28 229 339 543 28 347 l 28 156 b 203 183 89 176 149 183 b 361 169 260 183 313 176 b 521 1 385 83 447 31 z m 133 274 b 221 332 143 286 163 318 b 332 500 232 365 288 432 b 361 632 353 526 356 585 l 361 308 b 229 318 360 308 250 318 b 133 274 181 318 153 297 z "},"5":{"ha":564,"x_min":0,"x_max":0,"o":"m 276 -19 b 536 251 417 -19 536 94 b 288 511 536 379 451 510 b 125 454 224 511 165 494 b 176 503 140 474 154 489 l 194 633 b 171 696 175 657 171 678 l 171 707 b 264 621 188 639 221 621 b 451 649 336 621 396 649 b 513 619 476 649 497 642 l 522 619 b 526 657 525 632 526 644 b 424 767 526 717 494 767 b 254 736 363 767 311 736 b 210 756 226 736 210 746 b 215 767 210 761 213 765 l 119 767 b 67 404 119 767 67 439 b 197 428 108 421 154 428 b 404 256 300 428 404 365 b 286 132 404 199 357 132 b 192 218 235 132 192 169 b 200 250 192 229 194 240 b 128 107 168 235 128 176 b 183 -8 128 58 153 0 b 276 -19 213 -15 244 -19 z m 143 6 b 117 106 125 36 117 71 b 217 269 117 189 169 265 b 125 326 194 307 164 326 b 28 183 78 326 28 281 b 143 6 28 94 71 39 z "},"6":{"ha":593,"x_min":0,"x_max":0,"o":"m 388 -10 b 415 -3 396 -10 406 -7 b 565 244 517 33 565 133 b 457 451 565 339 543 451 b 297 410 406 451 347 435 b 421 272 374 410 421 360 b 306 135 421 196 369 135 b 215 185 269 135 238 156 b 275 57 225 139 244 93 b 388 -10 307 18 360 -10 z m 183 232 b 236 275 218 232 236 253 b 231 299 236 285 233 294 b 219 294 226 296 224 294 b 199 319 204 294 199 306 b 232 381 199 340 215 368 b 461 464 306 446 407 464 l 474 464 b 329 503 438 489 390 503 b 157 415 236 503 186 456 b 124 311 138 388 124 349 b 183 232 124 269 142 232 z m 433 525 b 553 607 497 525 553 563 b 458 743 553 658 511 717 b 429 753 447 749 436 753 b 393 744 415 753 403 749 b 257 647 346 726 290 688 b 319 663 275 657 296 663 b 432 553 389 663 432 610 b 428 525 432 543 431 533 z m 318 -19 b 360 -17 333 -19 347 -18 b 199 222 253 24 207 129 l 183 221 b 110 310 128 221 110 267 b 161 439 110 367 139 413 b 197 586 161 490 176 547 b 410 763 243 671 335 743 b 297 776 375 772 336 776 b 32 467 128 776 47 613 b 28 349 29 439 28 431 b 318 -19 28 172 81 -19 z "},"7":{"ha":481,"x_min":0,"x_max":0,"o":"m 51 0 b 150 4 82 3 117 4 l 204 3 b 94 211 124 51 94 133 b 100 269 94 231 96 250 b 69 110 81 222 69 169 b 51 0 69 72 69 28 z m 235 0 b 217 110 217 28 217 74 b 467 767 217 408 467 417 l 378 767 b 381 757 379 763 381 760 b 328 732 381 742 361 732 b 117 767 250 732 196 765 b 14 629 46 767 14 686 b 17 601 14 619 14 610 l 26 601 b 93 633 44 625 67 633 b 297 601 157 633 215 601 b 400 688 357 601 379 635 b 378 631 396 664 388 646 b 149 357 333 544 224 469 b 107 210 119 313 107 261 b 235 0 107 125 144 42 z "},"8":{"ha":558,"x_min":0,"x_max":0,"o":"m 401 3 b 529 233 494 43 529 131 b 444 410 529 321 500 378 b 408 418 431 417 435 418 b 279 326 357 418 279 393 b 321 282 279 297 297 282 l 333 283 b 331 290 332 285 331 288 b 356 317 331 300 338 317 b 386 296 364 317 379 311 b 392 257 390 283 392 271 b 279 136 392 190 360 136 b 210 156 250 136 226 143 b 401 3 251 75 324 7 z m 281 -19 b 376 -7 317 -19 349 -15 b 250 75 321 8 285 35 b 167 257 206 125 167 194 b 285 379 167 340 228 379 b 403 431 318 418 360 431 b 444 426 417 431 431 429 b 511 575 501 469 511 518 b 281 776 511 726 390 776 b 125 733 210 776 165 761 b 78 626 94 711 78 661 b 90 579 78 610 82 594 b 190 529 111 540 161 529 b 263 588 239 529 263 557 b 224 626 263 611 249 626 l 225 621 b 208 603 225 614 221 603 b 194 615 201 603 194 607 b 279 663 194 639 232 663 b 392 558 342 663 392 615 b 279 456 392 503 360 456 b 174 518 218 456 186 481 b 67 628 106 526 67 567 b 78 686 67 649 71 668 b 47 575 50 646 47 614 b 129 417 47 496 69 458 b 188 390 153 400 188 390 b 115 410 164 392 139 397 b 28 231 58 376 28 318 b 281 -19 28 89 99 -19 z "},"9":{"ha":567,"x_min":0,"x_max":0,"o":"m 258 -18 b 200 118 221 24 200 61 b 242 232 200 157 213 210 b 153 286 219 268 186 286 b 46 161 99 286 46 240 b 258 -18 46 35 156 -11 z m 290 -19 b 536 308 453 -15 526 161 b 539 410 539 342 539 376 b 368 760 539 556 504 711 b 336 768 361 763 344 768 b 308 754 325 768 318 763 b 226 664 275 729 246 692 b 278 679 242 672 260 679 b 376 600 321 679 358 647 b 425 593 400 601 413 599 b 479 500 458 579 479 544 b 414 344 479 439 450 393 b 288 136 413 226 376 136 b 222 172 258 136 232 153 b 213 114 217 154 213 135 b 229 43 213 90 218 67 b 290 -19 240 18 272 -19 z m 265 317 b 403 358 310 317 374 332 b 465 499 440 392 465 451 b 419 582 465 535 450 568 b 381 589 411 586 400 589 b 386 542 385 574 386 558 b 278 404 386 465 356 404 b 169 542 197 404 169 465 b 314 774 169 639 260 736 b 265 776 299 775 282 776 b 28 536 131 776 28 663 b 265 317 28 408 99 317 z "}," ":{"ha":347,"x_min":0,"x_max":0,"o":""}," ":{"ha":347,"x_min":0,"x_max":0,"o":""},"!":{"ha":268,"x_min":0,"x_max":0,"o":"m 135 165 b 42 74 83 165 42 125 b 135 -19 42 22 83 -19 b 226 74 185 -19 226 22 b 135 165 226 125 185 165 z m 61 465 b 65 243 64 392 64 317 b 203 243 113 249 163 249 b 224 757 203 415 211 586 b 126 665 186 742 151 703 b 67 522 99 622 78 574 b 61 465 64 504 61 488 z m 193 754 b 44 757 146 751 92 753 b 58 539 50 685 54 611 b 110 663 68 582 86 624 b 193 754 132 697 158 731 z "},"\"":{"ha":506,"x_min":0,"x_max":0,"o":"m 126 757 b 42 657 75 753 38 707 b 129 572 46 610 85 575 b 46 463 122 522 100 482 b 226 672 163 421 240 568 b 126 757 219 724 176 761 z m 363 757 b 278 657 311 753 274 707 b 365 572 282 610 321 575 b 282 463 358 522 336 482 b 463 672 399 421 476 568 b 363 757 456 724 413 761 z "},"#":{"ha":922,"x_min":0,"x_max":0,"o":"m 863 463 b 854 510 857 479 854 494 b 863 557 854 525 857 542 b 671 547 842 554 740 547 l 651 474 b 863 463 722 474 858 463 z m 276 1 l 275 26 b 311 203 275 72 288 114 l 228 201 b 158 1 210 133 194 56 b 219 6 181 4 200 6 b 276 1 240 6 258 4 z m 42 203 b 314 215 90 211 238 215 l 376 461 l 294 461 l 250 288 b 42 297 179 288 43 297 b 51 250 49 282 51 265 b 42 203 51 233 49 218 z m 792 203 b 783 250 786 219 783 235 b 792 297 783 267 786 282 b 604 288 735 292 639 290 l 586 214 b 792 203 661 214 758 208 z m 536 1 b 535 31 535 11 535 19 b 569 201 535 78 549 124 b 488 203 542 203 515 203 b 418 1 469 131 451 50 b 479 6 439 4 460 6 b 536 1 499 6 518 4 z m 572 215 l 592 288 l 685 651 b 729 757 694 690 710 726 b 671 753 710 754 690 753 b 613 757 651 753 632 754 b 614 729 614 749 614 739 b 575 546 614 683 589 597 l 411 546 l 393 475 l 557 475 b 508 286 542 411 525 349 l 344 286 l 326 215 z m 113 463 b 292 474 189 471 204 468 l 381 474 l 425 651 b 469 757 435 690 450 726 b 411 753 450 754 431 753 b 354 757 392 753 374 754 b 356 731 356 749 356 740 b 343 653 356 707 351 681 l 317 546 b 113 557 150 553 151 553 b 121 510 118 542 121 525 b 113 463 121 493 118 478 z "},"$":{"ha":606,"x_min":0,"x_max":0,"o":"m 426 539 b 531 631 486 546 531 588 b 504 699 531 654 515 685 b 375 775 475 740 428 765 b 439 613 425 725 439 663 b 426 539 439 586 433 561 z m 374 -97 b 356 -17 360 -76 356 -46 b 578 226 493 6 578 94 b 354 456 578 392 463 415 l 354 656 b 422 574 390 642 414 608 b 426 614 425 588 426 600 b 356 778 426 668 400 743 b 374 856 356 807 360 836 b 304 851 347 853 326 851 b 233 856 283 851 263 853 b 251 774 247 836 250 804 b 56 569 129 750 56 658 b 251 368 56 472 158 396 l 251 142 b 207 194 228 153 213 172 b 196 119 200 171 196 144 b 251 -19 196 69 218 17 b 233 -97 250 -49 246 -78 b 304 -92 263 -93 283 -92 b 374 -97 326 -92 347 -93 z m 354 67 l 354 329 b 408 290 378 317 394 304 b 196 571 354 383 203 442 b 239 643 194 600 215 628 b 251 699 246 664 251 699 l 251 497 b 221 522 240 504 229 513 b 435 231 282 392 435 351 b 367 147 435 197 417 167 b 354 67 360 96 357 83 z m 233 -17 b 185 125 201 25 182 76 b 233 268 188 190 203 243 b 136 326 210 306 172 326 b 28 182 81 326 28 281 b 233 -17 28 61 122 -1 z "},"%":{"ha":658,"x_min":0,"x_max":0,"o":"m 431 653 b 143 107 332 465 231 275 b 69 1 124 71 100 26 b 186 1 126 7 139 7 b 225 107 183 28 207 72 l 513 651 b 586 758 531 688 554 732 b 468 758 532 751 519 753 b 431 653 472 732 449 688 z m 242 560 b 210 499 235 538 224 515 b 133 451 190 475 163 456 b 192 440 150 444 169 440 b 342 608 286 440 342 517 b 260 760 342 682 308 735 b 225 761 244 769 236 765 b 199 743 215 756 206 750 b 167 704 186 732 175 718 b 192 713 175 710 183 713 b 251 621 224 713 251 671 b 242 560 250 600 247 579 z m 192 778 b 42 608 108 778 42 713 b 101 469 42 551 63 500 b 132 464 113 461 121 461 b 175 482 147 467 161 472 b 219 538 196 497 210 517 b 192 529 213 532 203 529 b 132 621 147 529 132 571 b 144 686 132 644 136 665 b 172 735 153 706 161 721 b 225 774 186 751 207 765 b 192 778 214 776 203 778 z m 485 39 b 408 -8 465 15 439 -3 b 467 -19 425 -15 444 -19 b 617 150 561 -19 617 57 b 536 301 617 222 583 275 b 501 301 519 310 511 306 b 474 283 490 296 482 290 b 443 244 461 274 450 258 b 467 253 450 250 458 253 b 526 161 500 253 526 213 b 517 100 526 140 524 121 b 485 39 510 78 500 57 z m 467 318 b 317 150 385 318 317 253 b 376 11 317 92 338 40 b 407 4 388 3 396 3 b 450 22 422 7 438 14 b 496 78 471 38 485 57 b 467 71 488 74 478 71 b 407 161 424 71 407 111 b 421 228 407 185 413 207 b 449 275 428 246 436 261 b 500 314 463 292 482 307 b 467 318 489 317 478 318 z "},"&":{"ha":693,"x_min":0,"x_max":0,"o":"m 425 11 b 444 15 432 11 439 13 b 543 183 503 47 543 101 b 532 251 543 210 539 232 b 456 268 508 258 479 264 b 567 258 522 264 544 258 b 665 371 618 258 658 288 b 599 363 646 371 650 363 b 456 375 551 363 503 374 b 418 374 443 375 429 375 b 306 231 356 365 307 328 l 314 231 b 347 264 318 247 331 264 b 378 225 364 264 378 250 b 268 132 378 167 326 132 b 218 143 249 132 232 136 b 340 43 218 143 271 81 b 425 11 365 29 399 11 z m 406 526 b 513 611 465 526 513 564 b 456 722 513 658 482 700 b 425 731 447 728 436 731 b 363 717 407 731 381 722 b 256 656 318 701 276 675 b 294 664 263 658 272 664 b 401 556 360 664 401 614 b 397 526 401 546 400 536 z m 293 -19 b 411 0 335 -19 375 -12 b 354 22 392 4 372 13 b 165 236 275 64 165 149 b 297 368 165 299 210 368 b 338 363 310 368 324 367 b 331 419 333 383 331 401 b 338 475 331 436 333 454 b 308 471 328 472 318 471 b 192 578 253 471 192 511 b 319 710 192 632 257 678 b 421 743 344 724 392 743 l 431 742 b 299 778 403 756 351 778 b 151 740 246 778 194 768 b 63 586 101 710 63 646 b 144 429 63 525 94 468 b 243 440 171 432 183 440 b 28 210 129 421 29 388 b 293 -19 29 67 154 -19 z "},"'":{"ha":269,"x_min":0,"x_max":0,"o":"m 126 776 b 42 676 75 772 38 726 b 129 592 46 629 85 594 b 46 482 122 542 100 501 b 226 692 163 440 240 588 b 126 776 219 743 176 781 z "},"(":{"ha":342,"x_min":0,"x_max":0,"o":"m 300 868 b 42 363 147 793 42 582 b 300 -142 42 144 147 -67 l 297 -111 b 146 363 206 22 146 193 b 297 838 146 533 206 704 z "},")":{"ha":342,"x_min":0,"x_max":0,"o":"m 42 868 l 44 838 b 194 363 136 704 194 533 b 44 -111 194 193 136 22 l 42 -142 b 300 363 194 -67 300 144 b 42 868 300 582 194 793 z "},"*":{"ha":369,"x_min":0,"x_max":0,"o":"m 206 776 b 185 703 208 754 196 726 b 163 776 172 728 161 754 b 64 719 119 744 117 743 b 117 664 83 710 103 685 b 42 682 89 665 61 669 b 42 567 47 624 49 621 b 117 585 61 579 89 583 b 64 529 101 561 83 539 b 163 472 117 506 119 504 b 185 546 161 494 172 521 b 206 472 197 521 207 494 b 306 529 254 507 256 508 b 253 585 285 540 268 561 b 328 567 281 583 308 579 b 328 682 321 621 321 624 b 253 664 308 669 278 665 b 306 719 268 686 285 708 b 206 776 256 740 254 742 z "},"+":{"ha":515,"x_min":0,"x_max":0,"o":"m 321 349 b 400 346 353 349 379 347 b 474 336 435 343 458 339 b 474 465 468 382 468 425 b 400 457 458 463 435 460 b 321 453 379 454 353 454 b 321 349 319 426 319 375 z m 206 336 b 201 258 204 306 203 279 b 193 185 199 225 196 200 b 322 185 239 190 282 190 b 313 258 318 200 315 225 b 308 336 311 279 310 306 b 206 336 274 338 239 338 z m 201 543 b 206 453 203 519 204 489 b 114 457 168 453 138 454 b 42 465 81 460 57 463 b 42 336 47 419 47 376 b 114 346 57 339 81 343 b 201 349 138 347 167 349 b 308 349 239 350 278 350 b 308 456 307 388 308 421 b 313 543 310 492 311 521 b 322 617 315 578 318 601 b 193 617 276 611 233 611 b 201 543 196 601 199 578 z "},",":{"ha":269,"x_min":0,"x_max":0,"o":"m 126 165 b 42 65 75 161 38 115 b 129 -19 46 18 85 -17 b 46 -129 122 -69 100 -110 b 226 81 163 -171 240 -24 b 126 165 219 132 176 169 z "},"-":{"ha":382,"x_min":0,"x_max":0,"o":"m 42 464 b 42 335 46 421 44 374 b 192 349 64 342 107 349 b 340 335 276 349 319 342 b 340 464 336 379 339 426 b 192 451 319 458 276 451 b 42 464 107 451 64 458 z "},"­":{"ha":382,"x_min":0,"x_max":0,"o":"m 42 464 b 42 335 46 421 44 374 b 192 349 64 342 107 349 b 340 335 276 349 319 342 b 340 464 336 379 339 426 b 192 451 319 458 276 451 b 42 464 107 451 64 458 z "},".":{"ha":268,"x_min":0,"x_max":0,"o":"m 135 165 b 42 72 83 165 42 124 b 135 -19 42 22 83 -19 b 226 72 185 -19 226 22 b 135 165 226 124 185 165 z "},"/":{"ha":451,"x_min":0,"x_max":0,"o":"m 100 106 b 42 0 86 69 69 26 b 158 0 99 6 111 6 b 182 106 151 26 168 71 l 393 651 b 451 757 406 686 424 731 b 333 757 399 751 386 751 b 311 651 342 731 325 688 b 100 106 239 464 165 274 z "},":":{"ha":268,"x_min":0,"x_max":0,"o":"m 135 165 b 42 72 83 165 42 124 b 135 -19 42 22 83 -19 b 226 72 185 -19 226 22 b 135 165 226 124 185 165 z m 135 485 b 42 392 83 485 42 443 b 135 300 42 342 83 300 b 226 392 185 300 226 342 b 135 485 226 443 185 485 z "},";":{"ha":269,"x_min":0,"x_max":0,"o":"m 135 485 b 42 392 83 485 42 443 b 135 300 42 342 83 300 b 226 392 185 300 226 342 b 135 485 226 443 185 485 z m 126 165 b 42 65 75 161 38 115 b 129 -19 46 18 85 -17 b 46 -129 122 -69 100 -110 b 226 81 163 -171 240 -24 b 126 165 219 132 176 169 z "},"<":{"ha":419,"x_min":0,"x_max":0,"o":"m 163 526 b 42 343 118 460 86 411 b 161 160 83 281 125 215 b 217 46 186 122 217 75 b 378 46 268 53 315 51 b 285 160 342 74 310 121 b 164 343 247 215 206 281 l 285 526 b 378 640 310 564 340 613 b 217 640 319 633 272 635 b 163 526 217 613 186 565 z "},"=":{"ha":515,"x_min":0,"x_max":0,"o":"m 42 465 b 42 336 49 422 46 375 b 257 350 72 343 135 350 b 474 336 381 350 442 343 b 474 465 467 381 469 428 b 257 453 442 460 381 453 b 42 465 135 453 72 460 z m 42 235 b 42 106 49 192 46 144 b 257 119 72 113 135 119 b 474 106 381 119 442 113 b 474 235 467 150 469 197 b 257 222 442 229 381 222 b 42 235 135 222 72 229 z "},">":{"ha":419,"x_min":0,"x_max":0,"o":"m 257 526 b 203 640 232 565 203 613 b 42 640 147 635 100 633 b 135 526 79 613 110 564 l 256 343 b 135 160 214 281 172 215 b 42 46 110 121 78 74 b 203 46 104 51 151 53 b 257 160 203 75 233 122 b 378 343 294 215 336 281 b 257 526 333 411 301 460 z "},"?":{"ha":539,"x_min":0,"x_max":0,"o":"m 250 -18 b 343 74 301 -18 343 22 b 250 167 343 125 301 167 b 158 74 200 167 158 125 b 250 -18 158 22 200 -18 z m 258 326 b 297 449 264 369 279 410 b 176 282 243 392 176 342 b 242 197 176 239 197 197 b 310 250 275 197 310 217 b 304 275 310 258 308 267 b 281 254 301 264 293 256 b 268 258 276 254 271 256 b 258 326 254 278 256 306 z m 194 625 b 276 654 214 643 243 654 b 372 586 325 654 372 631 b 339 496 372 553 360 524 b 324 471 333 489 329 479 b 286 388 308 444 296 417 b 269 294 276 358 267 326 b 464 488 299 353 418 406 b 497 596 485 524 497 560 b 472 679 497 625 490 653 b 349 771 444 728 406 758 b 315 768 335 774 328 774 b 254 721 292 757 272 739 b 194 625 228 692 207 656 z m 306 776 b 251 775 276 776 264 776 b 42 599 113 763 42 682 b 107 517 42 563 67 531 b 168 510 132 510 147 508 b 163 564 163 528 161 544 b 219 697 172 615 192 657 b 306 776 246 733 274 760 z "},"@":{"ha":910,"x_min":0,"x_max":0,"o":"m 493 -143 b 378 -196 458 -169 419 -189 b 454 -203 403 -200 428 -203 b 575 -61 600 -203 646 -110 b 493 -143 547 -99 524 -121 z m 301 622 b 28 224 142 561 28 406 b 314 -179 28 38 147 -121 b 375 -183 335 -186 356 -187 b 440 -161 399 -179 421 -171 b 518 -107 469 -146 494 -128 b 454 -117 497 -114 475 -115 b 115 224 267 -117 115 36 b 454 564 115 413 267 564 b 525 557 479 564 501 561 b 419 604 490 575 451 592 b 357 622 399 611 378 617 b 301 622 338 626 318 629 z m 471 442 b 400 381 443 426 425 413 b 426 386 408 385 418 386 b 511 249 494 386 507 340 b 564 160 542 218 560 179 b 511 231 560 169 539 201 b 400 278 481 261 440 278 b 268 167 332 278 268 218 b 319 106 271 138 296 117 b 426 108 357 88 397 90 b 401 139 413 111 401 124 b 446 186 401 171 419 186 b 539 94 497 186 532 138 b 540 58 542 81 542 69 b 529 29 538 47 535 38 b 557 -4 538 17 547 6 b 599 -31 569 -15 583 -25 b 631 -33 610 -36 619 -36 b 661 -24 640 -32 651 -28 b 703 6 679 -14 690 -4 b 683 7 696 4 689 4 b 651 60 669 13 658 31 b 644 122 646 82 644 100 l 647 247 b 626 386 647 297 643 347 b 578 447 618 407 600 431 b 533 460 568 454 553 460 b 471 442 514 460 492 454 z m 454 651 b 346 638 417 651 381 646 b 481 592 393 629 436 611 b 638 511 533 569 614 526 b 794 224 732 451 794 344 b 760 64 794 185 785 114 b 729 17 751 47 742 31 b 640 -44 707 -11 676 -35 b 676 -47 653 -47 665 -47 b 864 104 751 -47 828 1 b 882 224 878 142 882 183 b 454 651 882 460 690 651 z m 335 296 b 354 297 340 296 347 296 b 424 425 354 329 375 382 b 531 472 442 440 483 471 b 449 485 504 481 474 485 b 278 364 364 485 278 443 b 335 296 278 336 288 296 z m 428 -18 b 528 75 482 -15 528 22 b 468 156 528 122 500 156 l 460 154 b 461 143 461 150 461 146 b 378 81 461 106 414 82 b 261 143 329 81 282 101 l 261 129 b 415 -18 261 50 319 -18 z "},"A":{"ha":633,"x_min":0,"x_max":0,"o":"m 246 94 b 297 151 275 96 297 118 b 290 186 297 163 296 174 b 269 181 283 182 276 181 b 238 224 246 181 239 201 b 340 311 238 293 297 311 l 361 310 b 265 336 331 328 299 336 b 140 208 167 335 140 268 b 239 94 140 144 182 94 z m 619 0 b 569 113 593 28 581 75 l 424 654 b 407 740 417 682 407 714 b 411 767 407 750 408 760 b 310 763 379 764 344 763 b 221 767 279 763 249 764 b 225 738 224 758 225 749 b 210 654 225 713 217 682 b 63 113 161 476 108 278 b 14 0 53 75 40 28 b 110 6 44 4 78 6 b 199 0 142 6 172 4 b 194 28 196 8 194 17 b 204 85 194 46 199 67 b 128 214 149 111 128 161 b 274 349 128 339 238 349 l 310 478 b 299 569 304 514 301 540 l 365 325 b 431 250 392 308 419 272 b 396 285 419 263 408 274 b 335 297 386 294 356 297 b 251 232 271 297 251 257 l 251 229 b 265 233 256 232 260 233 b 300 222 276 233 290 228 b 438 29 357 193 438 107 b 433 0 438 18 436 8 b 524 6 460 4 490 6 b 619 0 556 6 589 4 z "},"B":{"ha":600,"x_min":0,"x_max":0,"o":"m 254 57 b 253 144 242 86 240 115 b 285 161 257 157 269 165 b 219 210 283 190 253 208 b 128 103 161 211 117 154 b 222 -3 138 63 163 22 b 326 -19 256 -17 292 -19 b 254 57 297 -4 269 22 z m 572 222 b 426 419 572 311 539 406 b 372 422 403 422 372 422 l 446 431 b 510 575 497 463 510 532 b 408 750 510 643 472 714 b 336 746 386 761 354 753 b 238 658 292 729 256 689 b 285 671 253 668 271 671 b 383 568 361 671 383 606 b 324 460 383 529 369 483 b 250 444 301 449 276 444 b 189 450 229 444 208 447 l 189 547 b 256 704 189 611 218 661 b 365 767 288 738 322 760 b 303 776 344 774 322 776 b 131 658 218 776 163 732 b 189 756 139 697 164 738 b 103 753 164 753 126 753 b 28 757 78 753 51 754 b 47 643 46 729 47 682 l 46 378 l 47 113 b 28 0 47 74 46 26 b 111 4 47 1 76 4 b 190 1 135 4 163 4 b 114 119 153 24 114 60 b 189 218 114 158 142 203 l 189 322 b 129 322 168 324 149 322 b 308 350 175 335 258 350 b 428 247 371 350 428 317 b 300 122 428 168 369 124 b 260 129 289 122 271 122 b 278 40 251 101 261 64 b 375 -17 300 10 335 -19 b 572 222 510 -3 572 122 z "},"C":{"ha":667,"x_min":0,"x_max":0,"o":"m 331 722 b 267 636 306 700 281 664 b 363 671 292 658 322 671 b 469 583 413 669 464 632 b 415 539 475 518 426 528 b 439 614 383 571 428 613 b 308 501 343 657 296 568 b 407 413 315 465 347 425 b 596 567 535 389 596 483 b 428 765 596 672 521 740 b 383 760 414 769 399 765 b 331 722 364 751 346 736 z m 385 774 b 318 775 361 776 340 778 b 28 386 124 760 26 556 b 364 -19 29 179 132 -21 b 454 -8 399 -19 428 -15 b 299 92 388 6 338 42 b 222 215 267 131 249 164 b 190 386 200 260 190 319 b 219 565 190 454 200 517 b 278 679 235 606 254 644 b 385 774 310 726 346 758 z m 351 56 b 432 11 367 42 401 21 b 506 13 460 3 486 3 b 560 53 525 24 542 36 b 639 226 608 99 639 161 b 488 349 639 294 599 357 b 360 124 526 258 464 124 b 271 154 326 124 296 135 b 351 56 293 118 314 85 z "},"D":{"ha":625,"x_min":0,"x_max":0,"o":"m 328 -18 b 253 60 297 -3 268 22 b 249 138 243 85 240 111 b 260 156 251 144 254 151 b 285 161 267 164 275 163 b 219 208 283 190 253 208 b 125 117 156 208 125 161 b 257 -14 125 57 190 3 b 328 -18 282 -21 301 -19 z m 378 -7 b 597 388 535 38 596 208 b 528 649 597 475 575 572 b 474 686 515 671 494 681 b 415 694 456 690 432 694 b 293 671 372 696 338 693 b 324 669 303 672 314 671 b 456 386 415 650 456 531 b 322 126 456 250 414 143 b 260 131 303 122 276 121 b 272 49 253 101 258 74 b 319 1 285 28 301 13 b 378 -7 340 -11 358 -12 z m 189 217 l 189 538 b 364 706 192 619 258 694 b 496 692 431 713 472 700 b 308 776 450 743 389 776 b 125 658 229 776 160 733 b 189 756 126 685 151 735 b 113 753 156 753 131 753 b 28 757 85 753 57 754 b 47 644 46 729 47 682 l 46 379 l 47 106 b 28 0 47 68 46 28 b 115 6 60 4 85 6 b 192 1 143 6 167 6 b 113 118 151 25 114 63 b 189 217 113 163 143 206 z "},"E":{"ha":576,"x_min":0,"x_max":0,"o":"m 547 1 b 544 71 544 22 544 46 b 546 126 544 89 544 107 b 476 54 529 100 501 71 b 360 4 436 26 393 11 z m 28 1 b 268 4 103 1 186 3 b 549 158 379 7 504 56 b 476 135 524 143 504 135 b 299 139 419 135 385 139 b 118 85 240 139 176 128 b 189 139 139 113 175 133 l 189 358 b 119 372 165 364 147 368 l 301 372 b 414 353 340 372 386 371 b 411 418 413 378 411 399 b 414 476 411 436 413 456 l 189 476 l 189 638 b 119 653 165 644 144 649 l 419 653 b 533 635 458 653 506 653 b 528 701 531 658 529 682 b 531 757 528 719 529 740 b 294 753 447 754 371 753 b 28 757 210 753 125 754 b 47 647 46 729 47 683 l 47 124 b 28 1 47 76 47 32 z "},"F":{"ha":563,"x_min":0,"x_max":0,"o":"m 532 663 b 531 707 531 685 531 692 b 533 757 531 728 532 743 l 365 753 b 532 663 426 740 496 714 z m 208 0 b 190 111 190 28 190 75 l 190 356 b 121 372 167 363 144 367 l 303 372 b 415 353 342 372 388 371 b 413 417 414 379 413 397 b 415 476 413 438 414 454 l 190 475 l 190 636 b 121 653 168 643 144 649 l 421 653 b 535 635 460 653 507 653 b 426 724 514 679 469 707 b 185 754 343 754 271 753 b 28 757 135 754 83 756 b 47 647 46 729 47 683 l 47 321 b 61 214 47 268 49 256 b 208 0 94 108 149 36 z m 29 0 b 113 6 49 3 75 6 b 183 1 132 6 156 4 b 47 218 111 57 71 143 l 47 106 b 29 0 47 63 43 22 z "},"G":{"ha":665,"x_min":0,"x_max":0,"o":"m 628 368 b 489 349 583 353 535 350 l 458 349 b 353 125 511 263 463 118 b 271 153 321 126 293 136 b 344 61 281 135 310 90 b 451 7 372 35 410 15 b 478 68 458 24 469 47 b 463 0 478 68 475 21 b 546 6 493 3 518 6 b 638 0 578 6 608 4 b 618 114 618 29 618 76 l 618 254 b 638 368 618 292 618 340 z m 267 636 b 361 671 290 658 322 671 b 468 583 411 669 463 632 b 415 539 475 518 425 528 b 439 614 383 571 426 613 b 307 501 342 657 296 568 b 407 413 314 465 346 425 b 594 567 533 389 594 483 b 446 760 594 665 531 731 b 397 763 429 765 413 767 b 340 733 375 758 356 744 b 267 636 307 706 278 658 z m 343 776 b 28 386 132 778 26 563 b 132 76 28 268 61 154 b 363 -19 186 18 263 -19 b 439 -4 390 -19 417 -12 b 297 92 378 10 332 47 b 221 218 267 131 243 174 b 190 386 200 263 190 321 b 218 565 190 454 199 517 b 278 679 235 606 253 644 b 388 774 306 721 344 761 b 343 776 372 775 358 776 z "},"H":{"ha":599,"x_min":0,"x_max":0,"o":"m 571 0 b 553 110 553 28 553 74 l 553 438 b 539 542 553 488 551 500 b 392 754 506 647 451 718 b 410 644 410 726 410 681 l 410 433 b 300 429 410 433 356 429 b 189 433 243 429 189 433 l 189 646 b 208 757 189 682 189 729 b 119 751 181 754 150 751 b 28 757 89 751 57 754 b 47 646 46 729 47 683 l 46 294 b 60 214 46 263 53 238 b 207 1 93 108 147 38 b 189 111 189 29 189 75 l 189 313 b 119 325 165 317 142 322 b 300 333 179 328 219 333 b 479 325 379 333 418 328 b 410 313 457 322 433 317 l 410 108 b 392 0 410 75 408 35 b 483 4 421 3 453 4 b 571 0 514 4 544 3 z m 28 0 b 124 6 58 4 92 6 l 182 4 b 46 218 113 56 71 135 l 46 121 b 28 0 46 72 43 25 z m 553 538 l 553 635 b 571 756 553 683 556 731 b 475 750 540 751 507 750 b 417 753 454 750 435 751 b 553 538 485 701 529 617 z "},"I":{"ha":292,"x_min":0,"x_max":0,"o":"m 147 6 b 206 3 167 6 188 4 b 126 81 164 28 140 60 b 75 215 100 124 85 172 l 75 111 b 56 0 75 72 74 28 b 147 6 85 3 117 6 z m 217 111 l 217 646 b 236 757 217 682 217 729 b 151 753 210 754 181 753 b 56 757 119 753 86 754 b 75 646 74 729 75 683 l 74 456 l 75 336 b 117 126 75 271 86 192 b 236 0 142 71 181 25 b 217 111 217 28 217 74 z "},"J":{"ha":594,"x_min":0,"x_max":0,"o":"m 246 4 b 331 69 282 15 310 40 b 369 153 350 96 365 138 b 301 122 354 133 333 122 b 178 244 221 124 178 179 b 207 333 178 276 190 308 b 160 343 190 340 175 343 b 28 193 85 343 26 286 b 67 78 28 153 46 110 b 171 -1 93 38 129 14 b 246 4 194 -7 224 -3 z m 556 776 b 385 747 471 747 411 743 b 403 638 401 721 403 675 l 403 353 b 381 144 403 282 400 211 b 336 54 371 113 356 82 b 228 -14 303 10 257 -10 b 307 -19 253 -18 279 -19 b 476 53 386 -19 443 11 b 546 358 522 110 546 183 l 546 610 b 551 718 546 640 546 682 b 567 776 553 738 558 760 z "},"K":{"ha":611,"x_min":0,"x_max":0,"o":"m 475 531 b 586 657 543 531 586 575 b 524 747 586 690 578 747 b 376 650 463 747 403 682 b 421 668 392 661 406 668 b 450 635 443 668 450 651 b 403 588 450 608 429 588 l 392 589 b 475 531 404 547 439 531 z m 156 413 b 189 540 161 461 167 492 l 189 644 b 208 757 189 682 189 728 b 119 751 181 753 150 751 b 28 757 89 751 57 753 b 47 644 46 729 47 683 b 46 383 46 564 46 472 l 46 297 b 60 215 46 265 53 239 b 96 129 69 186 82 157 b 171 29 119 85 144 53 b 207 1 182 18 196 8 b 189 113 189 33 189 78 b 208 303 189 179 190 218 b 332 113 288 176 260 222 b 382 0 356 76 383 33 b 489 6 415 3 451 6 b 597 0 525 6 563 4 b 501 113 557 29 526 75 b 263 476 501 113 303 418 b 326 596 282 524 304 565 b 521 758 367 657 440 758 b 538 757 526 758 532 758 b 472 776 521 769 500 776 b 156 413 325 776 213 603 z m 97 100 b 46 219 75 139 58 179 l 46 107 b 28 0 46 64 42 22 b 124 6 58 4 92 6 b 182 3 144 6 164 4 b 97 100 147 29 119 64 z "},"L":{"ha":589,"x_min":0,"x_max":0,"o":"m 560 0 b 556 65 558 14 556 36 b 558 128 556 83 557 104 b 364 6 517 57 431 19 z m 28 0 b 258 6 96 3 174 4 b 479 64 331 6 415 24 b 561 158 514 86 549 125 b 490 135 543 147 521 135 b 319 140 433 135 390 139 b 213 129 269 140 243 138 b 93 64 171 118 131 99 b 189 140 119 97 140 119 l 189 646 b 208 757 189 683 189 729 b 47 468 88 703 50 597 l 47 111 b 28 0 47 65 47 32 z m 47 572 b 175 754 68 661 117 724 b 119 753 157 753 139 753 b 28 757 89 753 57 754 b 47 646 46 729 47 683 z "},"M":{"ha":693,"x_min":0,"x_max":0,"o":"m 185 3 b 100 100 150 29 122 64 b 49 218 78 138 61 178 b 31 0 46 160 58 43 b 126 6 61 4 94 6 b 185 3 147 6 167 4 z m 644 549 l 644 644 b 665 756 644 688 650 724 b 578 751 636 753 608 751 b 507 754 556 751 532 751 b 586 668 539 726 564 700 b 644 549 610 632 631 588 z m 414 478 b 319 218 381 392 350 301 l 335 332 b 210 757 282 474 210 653 b 115 751 176 753 144 751 b 28 756 85 751 57 753 b 49 646 43 725 49 688 l 49 294 b 63 214 49 263 56 236 b 99 128 72 183 85 154 b 210 1 132 63 192 8 b 192 111 192 29 192 75 l 192 329 l 153 471 b 271 125 207 358 240 260 b 346 132 290 128 321 132 b 422 125 372 132 403 129 b 467 292 431 168 449 232 b 481 331 471 304 475 318 b 501 471 488 383 493 419 l 501 111 b 482 0 501 74 501 28 b 575 6 513 3 544 6 b 664 0 606 6 638 4 b 644 111 646 29 644 75 l 644 481 b 635 539 644 510 642 521 b 581 651 621 578 603 617 b 483 757 557 689 524 729 b 414 478 483 686 451 582 z "},"N":{"ha":590,"x_min":0,"x_max":0,"o":"m 563 0 b 543 124 544 31 543 90 l 543 436 b 528 543 543 488 542 500 b 382 756 494 649 442 719 b 400 639 400 728 400 675 l 400 207 b 371 368 400 207 386 325 b 208 757 307 476 224 617 b 115 753 178 754 146 753 b 28 757 85 753 56 754 b 46 636 44 728 46 671 l 47 321 b 61 214 47 269 47 257 b 208 1 94 110 149 38 b 190 124 190 29 190 88 l 190 388 b 131 522 172 432 151 478 l 190 433 b 381 0 267 313 368 138 b 474 4 411 3 443 4 b 563 0 503 4 535 0 z m 29 0 b 125 6 60 4 93 6 l 183 4 b 46 218 113 54 72 138 l 47 124 b 29 0 47 75 44 25 z m 543 539 l 543 636 b 561 757 543 685 546 732 b 464 751 531 753 497 751 b 407 754 444 751 425 753 b 543 539 475 703 519 618 z "},"O":{"ha":665,"x_min":0,"x_max":0,"o":"m 132 686 b 31 322 43 588 19 449 b 176 28 40 213 81 96 b 233 -3 193 15 213 6 b 346 51 271 -15 311 14 b 414 161 374 82 397 121 b 354 125 401 146 381 131 b 233 188 304 114 257 142 b 197 371 208 235 199 307 b 93 519 132 392 99 457 b 132 686 88 597 113 653 z m 336 776 b 193 738 288 776 229 763 b 107 571 147 704 114 640 b 285 369 97 469 138 365 b 401 489 349 372 399 429 b 246 599 404 561 346 643 b 272 515 258 597 307 550 b 225 571 260 501 207 504 b 332 671 243 639 290 671 b 431 581 381 671 413 618 b 464 315 467 504 474 404 b 400 106 456 239 438 169 b 282 -15 372 56 332 11 b 529 63 371 -31 468 -4 b 638 407 615 154 642 285 b 492 725 633 524 592 650 b 336 776 447 757 392 776 z "},"P":{"ha":596,"x_min":0,"x_max":0,"o":"m 343 300 b 261 361 308 311 279 333 b 238 443 246 385 235 413 b 244 469 238 453 238 465 b 271 472 254 476 261 476 b 210 513 265 503 238 513 b 133 419 161 513 133 464 b 236 311 133 361 182 326 b 343 300 268 301 308 294 z m 406 311 b 568 554 517 342 568 436 b 515 703 568 615 549 665 b 440 728 497 724 467 728 b 376 718 411 726 394 724 b 271 668 336 707 297 689 b 310 674 283 672 296 674 b 425 556 365 674 425 633 b 300 419 425 499 404 419 b 250 432 283 419 263 424 b 279 357 251 404 263 379 b 338 315 293 340 315 325 b 406 311 361 306 383 304 z m 207 1 b 189 113 189 29 189 76 l 189 317 b 121 419 136 346 121 386 b 189 522 121 476 158 514 b 217 635 190 576 192 604 b 443 740 272 701 376 740 b 481 736 456 740 468 739 b 338 776 442 763 392 776 b 131 651 244 776 164 740 b 189 754 133 703 175 744 b 118 753 165 753 142 753 b 28 757 88 753 57 754 b 47 646 46 729 47 685 l 46 299 b 61 217 46 265 53 240 b 207 1 94 110 147 36 z m 183 4 b 97 101 147 31 119 64 b 46 221 75 139 58 179 b 28 0 43 163 56 44 b 125 6 60 4 92 6 b 183 4 144 6 164 6 z "},"Q":{"ha":665,"x_min":0,"x_max":0,"o":"m 381 175 b 286 135 349 188 300 185 b 233 188 263 146 244 165 b 200 324 215 225 204 278 b 199 371 199 342 199 356 b 93 519 133 392 99 457 b 132 686 88 597 113 653 b 28 389 58 604 29 496 b 31 314 28 363 28 339 b 175 29 42 207 83 94 b 339 -19 222 -4 281 -21 b 329 39 335 3 331 29 b 513 -171 375 -57 426 -157 b 667 -1 665 -197 725 -60 b 590 -51 642 -47 621 -53 b 504 4 558 -49 529 -26 b 444 99 478 36 461 69 b 381 175 425 135 408 164 z m 528 63 b 636 407 615 156 642 286 b 490 725 632 525 590 650 b 340 776 447 757 394 775 b 206 746 293 778 242 765 b 149 689 182 732 163 710 b 107 571 126 656 111 614 b 285 371 97 469 138 365 b 401 490 349 372 399 429 b 246 599 404 561 346 643 b 272 515 258 597 308 550 b 225 571 260 501 207 504 b 283 657 236 614 257 640 b 332 671 297 667 315 671 b 429 581 381 671 411 618 b 454 253 475 486 475 353 b 415 165 447 222 436 190 b 460 100 429 151 444 128 b 497 35 472 76 485 53 b 528 63 508 43 519 53 z "},"R":{"ha":625,"x_min":0,"x_max":0,"o":"m 417 340 b 569 553 531 365 569 449 b 514 706 569 617 549 668 b 440 726 496 726 465 726 b 263 665 378 726 310 703 b 310 674 276 672 294 674 b 408 618 349 674 388 656 b 444 451 439 565 444 504 b 417 340 444 413 435 372 z m 597 0 b 543 97 579 11 553 47 b 501 258 533 147 524 213 b 400 338 482 300 444 324 b 432 460 424 376 432 417 b 425 540 432 486 429 513 b 294 418 418 453 371 418 b 189 429 257 418 217 424 l 189 544 b 431 739 189 675 342 738 b 481 735 447 739 467 738 b 338 776 442 763 392 776 b 121 624 235 776 149 733 b 189 756 124 682 158 731 b 118 753 175 754 142 753 b 28 757 88 753 57 754 b 47 646 46 729 47 685 l 46 383 b 61 215 47 279 43 272 b 207 1 94 110 147 39 b 189 113 189 29 189 76 l 189 285 l 160 286 l 121 285 b 228 308 157 296 190 308 b 375 153 321 308 361 236 b 554 0 401 3 419 0 z m 28 0 b 125 6 60 4 92 6 l 183 4 b 46 221 110 57 69 143 l 46 121 b 28 0 46 74 43 25 z "},"S":{"ha":599,"x_min":0,"x_max":0,"o":"m 350 628 b 286 557 304 628 286 589 b 394 476 286 500 343 476 b 457 492 418 476 439 482 b 403 499 438 490 421 492 b 369 531 389 506 376 517 b 358 567 363 542 360 554 b 388 619 358 592 374 615 b 350 628 374 625 361 628 z m 451 292 b 399 157 458 243 435 190 b 279 125 369 132 331 118 b 214 171 249 129 226 147 b 254 63 218 133 231 96 b 300 15 268 43 288 24 b 379 -10 310 7 346 -17 b 569 210 489 15 563 90 b 435 424 576 336 513 390 b 324 461 399 439 357 451 b 410 383 342 449 379 421 b 451 292 439 346 449 315 z m 140 319 b 28 190 85 319 28 272 b 290 -19 28 47 143 -19 b 332 -17 306 -19 318 -18 b 201 167 256 15 210 92 b 204 231 200 189 200 210 b 231 268 208 247 218 260 b 140 319 208 304 175 321 z m 299 776 b 63 611 188 774 79 710 b 267 361 39 463 163 392 b 414 278 344 339 392 308 b 429 222 426 258 431 240 b 432 318 443 253 443 286 b 360 417 419 357 392 388 b 292 467 342 433 317 450 b 235 506 271 481 250 493 b 194 582 210 525 193 550 b 299 671 200 643 257 667 b 425 596 375 676 424 638 b 372 560 426 549 386 551 b 408 511 375 536 389 519 b 453 504 422 504 438 503 b 489 514 467 504 479 506 b 529 622 517 540 532 581 b 460 735 525 667 493 713 b 381 769 435 753 408 764 b 299 776 350 775 328 776 z "},"T":{"ha":667,"x_min":0,"x_max":0,"o":"m 414 1 b 396 111 396 29 396 75 l 396 624 b 342 642 379 632 364 638 l 525 643 b 624 632 558 643 596 642 b 515 713 596 671 551 699 b 289 753 443 743 358 753 b 28 757 192 753 114 756 b 32 689 32 735 32 710 b 28 624 32 668 31 647 b 142 643 56 642 103 643 l 253 642 l 253 365 b 268 214 253 260 253 258 b 414 1 301 108 354 38 z m 639 631 b 636 689 638 650 636 669 b 639 757 636 713 638 735 l 418 753 b 639 631 504 735 588 711 z m 235 0 b 332 6 267 4 299 6 l 390 4 b 253 218 318 57 276 143 l 253 106 b 235 0 253 63 249 22 z "},"U":{"ha":596,"x_min":0,"x_max":0,"o":"m 299 122 b 213 161 258 122 231 139 b 267 40 224 121 239 78 b 364 -12 289 11 324 -21 b 494 69 424 0 465 32 b 549 232 536 124 549 192 l 549 349 b 476 221 536 300 511 257 b 400 158 454 196 428 176 b 299 122 367 136 338 122 z m 407 644 l 407 247 b 385 163 407 215 400 186 b 500 269 432 192 469 225 b 542 369 521 300 533 333 b 549 443 546 393 549 425 l 549 644 b 568 757 549 682 550 729 b 388 757 514 750 446 751 b 407 644 407 729 407 683 z m 313 -19 b 190 246 231 32 190 154 l 190 644 b 210 757 190 682 190 729 b 121 753 183 754 151 753 b 28 757 89 753 57 754 b 47 644 46 729 47 683 l 47 232 b 144 26 47 181 68 85 b 229 -12 164 11 189 -4 b 313 -19 247 -17 269 -19 z "},"V":{"ha":610,"x_min":0,"x_max":0,"o":"m 401 -10 l 400 8 b 414 101 400 35 406 72 b 561 646 463 281 511 467 b 600 744 569 678 581 717 b 388 549 500 714 407 619 b 282 108 321 272 282 108 l 290 271 l 199 646 b 183 731 192 672 183 704 b 188 757 183 740 185 750 b 101 753 163 754 133 753 b 0 757 67 753 32 754 b 49 646 26 729 39 683 b 197 101 99 465 150 269 b 210 11 204 72 210 38 l 208 -10 b 311 -4 240 -7 276 -4 b 401 -10 343 -4 374 -6 z m 400 601 b 610 757 436 658 513 735 b 508 753 578 754 543 753 b 424 757 478 753 449 754 b 428 732 426 750 428 742 b 400 601 428 706 414 660 z "},"W":{"ha":1033,"x_min":0,"x_max":0,"o":"m 825 -10 l 825 -1 b 849 147 825 33 844 133 b 983 646 894 311 939 482 b 1022 743 993 679 1003 715 b 800 508 946 715 831 622 l 706 108 l 714 263 b 629 619 683 382 660 506 b 607 738 626 626 607 699 b 610 757 607 746 608 753 b 515 753 578 754 546 753 b 424 757 483 753 454 754 b 426 738 425 753 426 746 b 404 619 426 699 407 626 b 283 108 369 490 283 108 l 292 263 b 199 646 258 392 232 524 b 183 731 192 674 183 704 b 188 757 183 740 185 750 b 101 753 163 754 133 753 b 0 757 67 753 32 754 b 49 646 26 729 39 685 l 185 147 b 208 -1 189 133 208 35 l 208 -10 b 306 -4 239 -6 272 -4 b 401 -10 339 -4 372 -6 l 401 -1 b 426 147 401 33 422 133 l 517 482 l 607 147 b 631 -1 611 133 631 35 l 631 -10 b 729 -4 663 -6 696 -4 b 825 -10 763 -4 796 -6 z m 815 574 b 1033 757 865 674 961 736 b 931 753 1001 754 965 753 b 846 757 900 753 871 754 b 850 731 849 750 850 740 b 815 574 850 696 833 646 z "},"X":{"ha":700,"x_min":0,"x_max":0,"o":"m 657 0 b 578 110 622 28 597 74 b 431 379 532 192 481 288 b 700 757 507 540 585 706 b 590 750 604 757 607 756 b 482 636 536 733 504 678 b 164 17 367 424 297 113 b 353 226 240 47 300 131 b 388 293 365 247 388 293 b 361 211 388 293 367 233 b 458 4 411 115 458 40 l 458 0 b 556 4 486 3 521 4 b 657 0 592 4 628 3 z m 61 0 b 132 13 103 0 119 6 b 190 58 156 24 174 39 b 356 381 268 147 321 296 b 554 747 393 476 474 699 b 347 531 469 722 404 636 b 242 753 289 640 242 711 l 242 757 b 153 753 218 754 186 753 b 43 757 115 753 75 754 b 122 647 76 729 103 683 l 263 392 b 300 442 275 411 289 429 b 0 0 215 264 132 58 z "},"Y":{"ha":599,"x_min":0,"x_max":0,"o":"m 289 21 b 375 160 347 63 368 133 b 299 121 358 136 335 121 b 175 221 215 122 175 172 b 194 274 175 240 182 258 b 147 283 181 279 164 283 b 32 168 92 283 32 247 b 156 1 32 82 79 28 b 289 21 207 -14 257 -3 z m 324 300 b 219 403 268 313 238 360 b 192 599 196 463 192 524 l 192 626 b 213 757 192 669 192 724 b 124 753 183 754 153 753 b 28 757 90 753 58 754 b 50 626 49 725 50 671 l 49 528 b 275 294 49 424 125 296 b 324 300 293 294 310 296 z m 481 53 b 549 356 522 106 549 168 l 549 626 b 571 757 549 669 549 724 b 474 753 538 754 506 753 b 385 757 442 753 413 754 b 406 649 401 731 406 688 l 406 604 b 297 421 406 536 400 422 b 213 475 256 421 228 444 b 257 360 222 418 243 381 b 340 310 279 331 308 311 b 460 413 385 308 431 356 b 404 317 451 374 436 342 b 399 214 404 296 404 250 b 347 64 390 161 376 107 b 236 -15 318 21 283 -6 b 304 -18 257 -18 281 -18 b 481 53 385 -18 447 10 z "},"Z":{"ha":571,"x_min":0,"x_max":0,"o":"m 356 4 b 540 0 422 4 488 1 b 539 64 539 21 539 43 b 540 129 539 86 539 107 b 469 54 519 97 503 76 b 356 4 435 31 399 15 z m 210 753 b 28 757 149 753 89 754 b 31 690 31 733 31 713 b 29 649 31 675 31 661 b 103 713 51 675 75 694 b 210 753 135 732 176 746 z m 92 642 b 147 643 101 643 122 643 l 285 643 b 468 689 347 643 410 651 b 392 642 456 671 421 651 b 304 503 383 586 343 540 b 132 324 253 451 189 399 b 28 0 74 247 28 181 b 264 4 99 1 178 3 b 382 25 306 4 344 13 b 478 75 417 36 449 53 b 543 158 506 97 524 124 b 483 142 524 147 503 143 b 407 147 457 140 429 144 b 285 158 371 153 329 158 b 106 92 229 158 164 139 b 190 157 126 115 142 136 b 397 429 200 260 306 332 b 540 757 474 510 540 582 b 322 753 464 754 388 753 b 251 747 299 753 274 751 b 135 715 211 743 171 732 b 28 624 94 697 53 664 b 92 642 42 633 64 639 z "},"[":{"ha":307,"x_min":0,"x_max":0,"o":"m 42 844 b 54 722 46 818 54 785 l 54 1 b 42 -140 54 -65 53 -107 b 265 -153 107 -135 217 -125 b 265 -17 258 -106 258 -60 b 151 -36 229 -36 189 -37 l 151 742 b 265 724 192 742 233 740 b 265 860 260 769 258 817 b 42 844 197 832 111 835 z "},"\\":{"ha":426,"x_min":0,"x_max":0,"o":"m 336 106 b 179 651 288 274 232 464 b 167 757 168 688 157 731 b 42 757 111 751 97 751 b 90 651 68 731 81 686 l 247 106 b 260 0 257 71 269 26 b 385 0 311 6 325 6 b 336 106 358 26 346 69 z "},"]":{"ha":307,"x_min":0,"x_max":0,"o":"m 42 860 b 42 724 49 817 47 769 b 156 742 74 740 115 742 l 156 -36 b 42 -17 118 -37 78 -36 b 42 -153 49 -60 49 -106 b 265 -140 90 -125 200 -135 b 253 1 254 -107 253 -65 l 253 722 b 265 844 253 785 261 818 b 42 860 196 835 108 832 z "},"^":{"ha":456,"x_min":0,"x_max":0,"o":"m 171 767 b 138 654 176 739 156 692 l 111 594 b 42 482 94 557 74 510 b 157 482 99 488 101 488 b 189 594 150 511 178 572 b 228 681 201 624 215 654 b 267 594 242 653 253 625 b 299 482 278 572 306 511 b 414 482 354 488 357 488 b 344 594 382 510 361 557 l 318 654 b 285 767 300 692 279 739 b 171 767 246 760 203 764 z "},"_":{"ha":649,"x_min":0,"x_max":0,"o":"m 42 -19 b 42 -149 50 -62 46 -110 b 325 -135 82 -142 164 -135 b 607 -149 485 -135 567 -142 b 607 -19 599 -104 603 -57 b 325 -32 567 -25 485 -32 b 42 -19 164 -32 82 -25 z "},"`":{"ha":410,"x_min":0,"x_max":0,"o":"m 115 904 l 42 826 l 325 640 l 368 686 z "},"a":{"ha":439,"x_min":0,"x_max":0,"o":"m 88 294 b 107 296 94 294 100 294 b 176 424 107 328 128 381 b 283 471 194 439 236 469 b 201 483 257 479 226 483 b 31 363 118 483 31 442 b 88 294 31 335 40 294 z m 365 -17 b 425 -3 383 -17 404 -12 b 397 121 399 47 397 83 l 400 246 b 379 385 400 296 396 346 b 331 446 371 406 353 429 b 224 440 311 461 265 465 b 153 379 196 425 178 411 b 179 385 161 383 171 385 b 264 247 247 385 260 339 b 317 158 294 217 313 178 b 264 229 313 168 292 200 b 153 276 233 260 193 276 b 21 165 85 276 21 217 b 72 104 24 136 49 115 b 179 107 110 86 150 89 b 154 139 165 110 154 122 b 199 185 154 169 172 185 b 293 93 251 185 285 136 b 283 29 297 65 292 46 b 307 3 290 19 299 10 b 365 -17 322 -10 343 -17 z m 181 -19 b 282 74 235 -17 282 21 b 222 154 282 121 253 154 l 213 153 b 215 142 214 149 215 144 b 131 79 215 106 167 81 b 14 142 83 79 35 100 l 14 128 b 168 -19 14 49 72 -19 z "},"b":{"ha":471,"x_min":0,"x_max":0,"o":"m 286 125 b 261 119 278 121 269 119 b 222 168 236 119 222 143 b 231 199 222 179 225 190 b 158 167 203 207 176 197 b 144 113 149 151 144 126 b 167 74 144 93 146 76 b 228 81 189 71 210 74 b 286 125 253 90 272 107 z m 165 17 b 131 111 140 47 131 76 b 165 200 132 158 157 190 l 165 242 b 242 397 165 307 185 367 b 342 419 268 410 300 421 b 419 396 376 418 403 408 b 275 486 389 451 342 486 b 129 290 185 486 140 372 b 165 433 129 338 138 392 l 165 663 b 185 776 165 700 165 749 l 175 776 b 14 635 139 719 82 660 b 33 521 32 607 33 556 l 33 113 b 14 0 33 75 32 28 b 90 4 39 3 65 4 b 165 0 115 4 142 3 z m 361 7 b 457 242 424 50 457 149 b 442 346 457 279 451 315 b 411 388 435 367 426 378 b 328 407 388 403 361 408 b 256 390 308 406 285 403 b 306 358 281 390 296 372 b 332 257 324 332 332 292 b 306 133 332 206 322 164 b 213 63 283 93 247 71 b 151 63 192 58 172 58 b 185 15 161 42 172 26 b 361 7 238 -32 313 -26 z "},"c":{"ha":443,"x_min":0,"x_max":0,"o":"m 257 388 b 338 297 319 389 339 321 b 406 375 410 282 411 346 b 383 425 403 394 394 411 b 346 453 374 438 360 450 b 272 431 326 456 293 442 b 206 372 256 421 233 407 b 257 388 222 382 239 388 z m 340 176 b 321 72 343 140 336 106 b 240 -19 304 35 275 3 b 276 -17 253 -19 265 -18 b 429 114 365 -6 426 58 b 335 214 431 172 403 222 b 340 176 339 201 340 189 z m 242 485 b 90 428 186 485 131 461 b 14 236 38 382 14 318 b 53 96 14 183 25 138 b 207 -15 93 36 144 -4 b 243 -3 221 -18 232 -10 b 294 50 263 11 281 29 b 329 169 318 85 329 126 b 256 114 315 138 286 113 b 147 236 186 115 149 171 b 188 368 149 289 163 332 b 247 429 204 393 224 413 b 329 467 269 446 297 458 b 297 478 319 471 307 475 b 242 485 281 482 264 483 z "},"d":{"ha":493,"x_min":0,"x_max":0,"o":"m 197 -18 b 344 107 304 -18 344 58 b 268 199 344 167 306 199 l 256 197 b 265 167 263 189 265 178 b 221 113 265 140 250 125 b 114 90 186 97 154 90 b 39 106 89 92 63 97 b 197 -18 69 33 124 -18 z m 461 775 b 299 633 425 718 367 658 b 317 519 317 606 317 557 b 318 446 317 499 317 468 b 365 290 354 403 368 350 b 196 486 351 394 301 486 b 14 240 82 486 13 353 b 28 140 14 204 18 172 b 61 113 32 125 49 115 b 124 103 81 106 103 103 b 201 117 150 103 176 108 b 171 133 189 119 178 126 b 139 250 149 156 139 196 b 217 389 139 343 178 388 b 318 226 279 389 317 318 l 318 204 b 354 135 336 186 350 163 b 336 38 361 104 356 69 b 479 0 361 -3 413 -24 b 451 113 461 36 451 56 b 451 632 451 293 450 464 b 471 775 451 678 449 733 z "},"e":{"ha":443,"x_min":0,"x_max":0,"o":"m 249 483 b 225 482 242 483 233 483 b 90 426 182 478 126 458 b 14 236 38 382 14 317 b 53 94 14 182 26 138 b 207 -15 88 38 144 -4 b 243 -3 221 -19 232 -10 b 294 49 263 11 281 29 b 329 168 318 85 329 125 b 256 113 315 138 285 113 b 149 215 194 114 157 160 b 83 236 129 224 83 236 b 147 229 83 236 140 231 b 224 225 172 226 199 225 b 329 243 261 225 299 229 b 361 293 354 254 361 274 b 311 367 361 324 340 354 b 317 349 315 361 317 356 b 179 274 317 279 201 274 l 151 275 b 188 368 157 311 169 342 b 247 429 204 392 224 413 b 331 467 269 446 299 458 b 297 478 319 471 307 475 b 249 483 281 482 265 483 z m 272 429 b 206 371 256 421 232 404 b 239 383 217 378 226 382 b 290 383 256 388 274 388 b 374 294 340 375 374 340 b 368 267 374 285 371 275 b 407 351 393 289 407 322 b 397 400 407 369 404 386 b 376 432 392 413 385 422 b 346 453 368 442 357 450 b 315 449 333 454 325 451 b 272 429 300 444 283 436 z m 340 176 b 321 72 343 140 336 104 b 240 -19 304 35 275 3 b 276 -18 253 -19 265 -19 b 429 113 365 -6 426 58 b 335 213 431 172 403 222 b 340 176 339 200 340 189 z "},"f":{"ha":338,"x_min":0,"x_max":0,"o":"m 218 0 b 199 114 199 29 199 76 l 199 358 b 140 376 178 361 164 367 b 190 371 158 374 175 371 b 250 383 211 371 232 375 b 318 507 288 401 301 447 b 251 481 303 489 279 481 b 140 494 217 481 179 490 b 199 503 160 496 172 499 b 346 711 204 631 215 711 b 435 682 381 711 414 700 b 293 776 425 732 376 776 b 65 485 101 776 65 622 b -7 360 21 467 8 410 b 65 385 10 381 38 385 l 67 114 b 47 0 67 75 65 28 b 135 6 76 3 106 6 b 218 0 163 6 190 3 z m 351 572 b 435 651 393 572 435 610 b 343 697 435 686 375 697 b 303 694 331 697 318 696 b 308 675 307 690 308 682 b 263 621 308 653 294 625 b 351 572 290 588 322 572 z "},"g":{"ha":483,"x_min":0,"x_max":0,"o":"m 14 240 b 28 139 14 203 18 172 b 61 111 32 124 49 115 b 124 103 81 106 103 103 b 201 117 150 101 176 107 b 171 133 189 119 178 126 b 139 250 149 154 139 196 b 217 388 139 342 178 388 b 310 290 263 389 296 349 b 317 225 315 269 317 244 l 317 204 b 357 107 339 183 357 150 b 313 10 358 76 342 36 b 254 -200 313 -93 303 -153 b 161 -237 229 -222 194 -236 b 236 -251 182 -246 208 -251 b 449 42 358 -251 449 -161 l 449 172 b 450 389 449 246 449 319 b 469 483 450 418 453 446 l 460 483 b 317 463 408 468 369 464 l 317 444 b 354 372 335 424 347 397 b 365 288 361 344 365 317 b 342 379 360 321 353 353 b 196 485 314 442 269 485 b 14 240 82 485 13 353 z m 254 196 b 260 142 267 181 268 160 b 221 111 253 129 238 119 b 176 96 206 104 192 100 b 114 90 156 90 136 89 b 39 106 89 90 63 97 b 197 -18 69 33 124 -18 b 329 50 272 -19 308 15 b 317 179 358 100 342 156 b 268 197 303 190 286 197 b 254 196 264 197 260 197 z m 296 -78 b 225 -126 294 -97 254 -126 b 194 -112 208 -126 194 -122 b 201 -101 194 -108 197 -104 b 217 -103 207 -97 213 -99 b 217 -85 218 -96 218 -90 b 147 -39 211 -57 179 -39 b 68 -124 103 -39 68 -74 b 124 -217 68 -153 88 -199 b 192 -219 143 -226 168 -226 b 253 -183 215 -212 238 -200 b 296 -78 278 -156 294 -114 z "},"h":{"ha":493,"x_min":0,"x_max":0,"o":"m 175 774 b 14 632 139 718 82 657 b 33 518 32 604 33 556 l 33 114 b 14 0 33 75 32 28 b 185 0 72 7 131 7 b 165 114 165 29 165 76 l 165 196 b 208 346 167 256 185 311 b 289 413 229 378 257 399 b 432 406 342 436 396 435 b 425 418 429 410 428 414 b 303 486 399 461 358 486 b 165 393 243 488 197 451 b 124 290 146 358 132 325 b 165 418 125 313 131 364 l 165 660 b 185 774 165 699 165 746 z m 350 417 b 267 390 319 413 292 403 b 328 244 321 389 328 297 l 328 114 b 308 0 328 75 328 28 b 479 0 367 7 425 7 b 461 114 461 29 461 76 l 461 271 b 447 367 461 306 456 338 b 399 413 439 390 421 406 b 350 417 382 417 367 418 z "},"i":{"ha":213,"x_min":0,"x_max":0,"o":"m 192 0 b 40 183 104 38 44 99 l 40 114 b 21 0 40 75 40 28 b 107 6 50 3 79 6 b 192 0 136 6 164 4 z m 182 485 b 21 467 131 467 74 467 b 40 353 40 439 40 389 l 40 246 b 50 178 40 222 44 199 b 110 68 60 136 81 99 b 183 18 131 47 157 31 b 172 114 174 47 174 83 l 172 371 b 192 485 172 410 172 457 z m 107 764 b 14 671 56 764 14 722 b 107 578 14 619 56 578 b 199 671 157 578 199 619 b 107 764 199 722 157 764 z "},"j":{"ha":213,"x_min":0,"x_max":0,"o":"m -118 -225 b 19 -78 -42 -225 17 -154 b -51 -126 18 -97 -22 -126 b -82 -112 -68 -126 -82 -122 b -68 -99 -82 -104 -75 -99 b -60 -101 -65 -99 -62 -100 b -129 -39 -60 -67 -83 -39 b -208 -124 -174 -39 -208 -74 b -118 -225 -208 -162 -178 -225 z m 181 483 b 18 465 129 467 71 465 b 38 353 36 438 38 389 b 36 38 38 246 38 126 b 32 -71 36 3 36 -37 b -22 -199 26 -126 11 -167 b -115 -236 -47 -221 -82 -235 b -40 -250 -94 -244 -68 -250 b 171 42 81 -250 171 -161 l 171 371 b 190 483 171 410 171 456 z m 107 764 b 14 671 56 764 14 722 b 107 579 14 621 56 579 b 199 671 157 579 199 621 b 107 764 199 722 157 764 z "},"k":{"ha":469,"x_min":0,"x_max":0,"o":"m 175 774 b 14 632 139 717 82 657 b 33 518 32 604 33 556 l 33 113 b 14 0 33 75 32 28 b 185 0 72 6 131 6 b 165 114 165 28 165 76 l 165 197 b 108 214 147 204 131 208 l 165 213 b 269 122 226 211 247 203 b 476 0 304 -10 296 0 b 422 78 458 10 433 36 b 365 228 410 132 404 201 b 265 250 332 251 300 249 b 306 294 282 263 297 275 b 308 351 314 311 317 331 b 271 300 303 329 290 313 b 165 271 239 281 207 274 b 251 381 185 310 235 368 b 306 379 269 392 290 390 b 319 294 325 361 332 324 b 293 257 313 276 301 265 b 425 386 356 269 425 313 b 322 485 425 439 394 486 b 165 379 254 483 203 432 b 125 290 147 353 132 321 b 165 401 125 314 138 363 l 165 660 b 185 774 165 699 165 746 z "},"l":{"ha":250,"x_min":0,"x_max":0,"o":"m 160 -19 b 250 1 193 -19 226 -10 l 250 11 b 153 61 228 18 185 39 b 33 219 81 117 54 156 l 33 128 b 160 -19 33 14 97 -19 z m 175 774 b 14 631 140 717 82 657 b 33 517 32 603 33 554 l 33 314 b 36 263 33 296 33 279 b 76 156 43 225 56 188 b 179 60 106 113 139 85 b 165 161 168 86 165 122 l 165 369 b 167 631 165 458 165 544 b 185 774 167 676 163 732 z "},"m":{"ha":788,"x_min":0,"x_max":0,"o":"m 696 4 b 774 0 722 4 749 3 b 756 113 756 28 756 75 l 756 271 b 749 342 756 296 753 319 b 724 393 744 367 738 381 b 661 417 708 406 689 415 b 565 390 643 417 608 415 b 622 244 615 383 622 296 l 622 114 b 604 0 622 75 622 28 b 696 4 635 4 665 4 z m 331 444 b 394 454 351 451 372 456 b 303 488 371 475 340 488 b 124 290 219 489 157 411 b 168 421 126 333 143 390 b 185 483 169 444 174 467 l 175 483 b 14 465 124 467 67 465 b 33 353 32 438 33 390 l 33 113 b 14 0 33 74 32 28 b 101 4 43 3 72 4 b 185 0 129 4 157 3 b 165 113 165 28 165 75 l 165 196 b 214 356 167 261 188 319 b 260 403 228 374 243 389 b 331 444 282 421 306 435 z m 440 389 b 415 433 433 406 425 421 b 393 442 408 442 401 442 b 332 432 372 443 351 439 b 264 390 307 422 285 407 b 294 378 276 390 288 385 b 328 244 322 351 328 286 l 328 114 b 308 0 328 75 326 28 b 400 4 339 4 369 4 b 479 0 428 4 454 3 b 460 113 461 28 460 75 l 460 194 b 657 429 464 374 581 429 b 726 407 689 429 711 418 b 701 443 719 421 710 433 b 597 488 676 471 642 488 b 525 467 569 488 546 479 b 418 290 471 431 435 358 b 440 389 419 328 428 369 z "},"n":{"ha":492,"x_min":0,"x_max":0,"o":"m 153 371 b 124 290 140 344 129 313 b 168 421 126 332 143 389 b 185 485 169 444 174 468 l 175 485 b 14 465 124 467 67 465 b 33 351 32 439 33 389 l 33 114 b 14 0 33 75 32 28 b 101 6 43 3 72 6 b 185 0 129 6 157 3 b 165 114 165 29 165 76 l 165 194 b 176 276 165 224 169 250 b 363 429 208 392 300 429 b 432 407 394 429 417 418 b 407 443 425 421 417 433 b 303 488 382 471 347 488 b 239 471 279 488 256 481 b 153 371 201 451 174 414 z m 400 4 b 478 0 426 4 453 3 b 460 113 460 28 460 75 l 460 271 b 454 342 460 296 457 319 b 428 393 450 367 442 381 b 365 417 414 406 394 415 b 271 390 347 417 314 415 b 326 244 321 383 326 296 l 326 114 b 308 0 326 75 326 28 b 400 4 340 4 369 4 z "},"o":{"ha":475,"x_min":0,"x_max":0,"o":"m 54 383 b 39 356 49 374 43 365 b 14 232 24 321 14 279 b 144 0 14 128 61 38 b 174 1 157 -6 163 -3 b 260 64 208 13 238 36 b 303 147 281 89 293 117 b 238 114 288 126 267 114 b 154 193 190 114 165 146 b 78 249 125 203 97 222 b 54 383 49 288 42 336 z m 238 485 b 126 454 197 485 158 475 b 69 383 99 436 79 413 b 88 257 54 340 61 293 b 128 219 97 242 114 226 b 189 206 144 210 165 204 b 258 246 222 206 249 225 b 197 346 276 288 261 349 b 199 308 208 332 207 317 b 175 310 190 299 179 303 b 186 364 165 328 176 353 b 238 388 200 379 219 388 b 326 250 288 388 326 326 b 325 194 326 232 326 213 b 269 56 318 146 303 96 b 175 -11 244 24 211 1 b 238 -19 194 -17 215 -19 b 461 232 379 -19 461 93 b 238 485 461 388 361 485 z "},"p":{"ha":471,"x_min":0,"x_max":0,"o":"m 185 -200 b 165 -86 165 -171 165 -124 l 165 18 b 132 111 140 47 132 76 b 165 200 132 160 157 190 l 165 243 b 331 419 165 328 210 419 b 421 396 365 419 399 413 b 275 486 390 453 342 486 b 129 292 185 486 140 374 b 171 435 129 339 138 399 b 185 485 172 454 178 472 l 175 485 b 14 467 124 467 67 467 b 33 353 32 439 33 389 l 33 -86 b 14 -200 33 -125 32 -172 b 101 -194 43 -196 72 -194 b 185 -200 129 -194 158 -196 z m 276 -19 b 457 243 393 -19 457 103 b 442 347 457 281 453 315 b 338 407 425 394 383 407 b 257 390 315 407 294 406 b 306 360 281 390 297 372 b 332 257 324 332 332 293 b 185 60 332 103 246 60 b 153 64 174 60 164 61 b 276 -19 175 4 232 -19 z m 286 126 b 263 119 279 122 271 119 b 222 169 238 119 222 143 b 231 200 222 179 225 190 b 158 168 203 207 176 197 b 144 113 150 153 144 126 b 168 74 144 93 147 76 b 228 81 190 71 210 74 b 286 126 253 90 274 107 z "},"q":{"ha":483,"x_min":0,"x_max":0,"o":"m 460 485 b 318 465 415 469 364 467 l 318 446 b 365 289 354 403 368 349 b 196 485 351 394 301 485 b 14 239 82 485 13 353 b 28 139 14 203 18 172 b 61 111 32 124 49 115 b 124 101 81 104 103 101 b 201 117 150 101 176 107 b 171 132 189 119 178 125 b 139 249 149 154 139 196 b 217 388 139 342 178 388 b 318 225 279 389 317 317 l 318 203 b 354 133 336 186 350 161 b 344 51 360 108 357 79 b 318 15 338 39 328 25 l 318 -86 b 300 -199 318 -124 318 -171 b 469 -199 358 -193 415 -193 b 451 -86 451 -171 451 -124 l 451 371 b 469 485 451 410 451 457 z m 197 -19 b 344 106 304 -19 344 57 b 268 197 344 165 306 197 l 256 196 b 265 165 263 188 265 176 b 221 111 265 140 250 125 b 114 89 186 96 154 88 b 39 104 89 90 63 96 b 197 -19 69 32 124 -19 z "},"r":{"ha":415,"x_min":0,"x_max":0,"o":"m 240 475 b 168 431 213 467 189 451 b 101 289 128 392 110 342 b 171 450 96 368 136 425 b 185 483 174 463 178 475 l 175 483 b 14 465 124 467 67 465 b 33 351 32 438 33 389 l 33 113 b 14 0 33 75 32 28 b 185 0 72 6 131 6 b 165 114 165 28 165 75 l 165 183 b 226 394 165 250 183 357 b 265 421 239 406 251 414 b 324 438 286 429 304 435 b 399 415 357 440 383 432 b 303 485 388 460 344 485 b 240 475 278 485 258 481 z m 265 406 b 229 329 285 394 276 336 b 401 376 294 247 390 285 b 388 410 403 390 399 400 b 342 425 375 419 360 425 b 265 406 315 426 289 418 z "},"s":{"ha":413,"x_min":0,"x_max":0,"o":"m 293 332 b 364 403 342 338 371 369 b 281 478 358 433 329 467 b 218 483 260 482 239 483 b 281 424 244 472 268 449 b 293 332 294 396 300 363 z m 172 479 b 38 379 108 468 56 431 b 183 207 -3 267 104 222 b 258 142 243 196 265 165 b 283 186 274 151 283 168 b 268 229 285 203 276 217 b 231 265 258 244 244 256 b 207 282 224 272 215 276 b 163 343 181 299 156 317 b 197 381 168 364 181 375 b 243 386 211 388 226 388 b 283 364 260 383 274 376 b 253 443 282 393 271 421 b 204 476 239 458 222 469 b 172 479 192 481 183 482 z m 233 -18 b 160 36 196 -6 175 14 b 138 119 143 61 136 90 b 140 143 138 128 139 135 b 158 163 142 149 147 156 b 90 199 142 186 115 199 b 14 108 51 199 14 169 b 201 -19 14 18 106 -19 b 233 -18 213 -19 224 -19 z m 229 282 b 260 258 240 275 250 267 b 288 222 271 247 279 236 b 296 181 293 210 297 196 b 269 135 294 163 283 146 b 235 117 258 125 247 121 b 203 113 224 114 213 113 b 150 122 181 113 161 115 b 178 33 147 92 156 61 b 263 -11 199 8 229 -8 b 286 -7 272 -11 279 -10 b 399 138 356 15 399 67 b 229 282 399 242 306 261 z "},"t":{"ha":311,"x_min":0,"x_max":0,"o":"m 229 740 b 68 599 193 683 136 624 b 86 485 86 572 86 521 b 61 475 78 482 69 479 b -7 351 24 457 10 411 b 60 378 8 371 32 378 b 88 376 68 378 78 378 l 88 314 b 90 263 88 296 88 279 b 131 156 97 224 110 188 b 233 60 160 113 193 83 b 219 161 222 86 219 122 l 219 351 b 143 368 190 354 164 360 b 190 363 160 364 176 363 b 250 375 211 363 232 367 b 318 499 288 393 301 439 b 251 472 303 481 279 472 b 143 486 211 474 181 482 b 183 488 157 486 171 486 b 219 492 196 488 208 489 l 219 597 b 239 740 221 643 217 699 z m 304 1 l 304 11 b 207 61 282 18 239 38 b 88 219 135 117 108 156 l 88 128 b 214 -19 88 14 151 -19 b 304 1 247 -19 281 -11 z "},"u":{"ha":483,"x_min":0,"x_max":0,"o":"m 33 351 l 33 258 b 39 226 33 247 36 236 b 92 153 47 196 67 171 b 144 126 108 140 126 132 b 192 122 160 122 176 121 b 165 210 165 138 165 181 l 165 465 b 92 461 139 463 115 461 b 14 465 68 461 43 463 b 33 351 32 436 33 390 z m 310 351 l 310 231 b 254 125 310 179 289 143 b 179 108 226 111 201 108 b 89 139 147 110 115 121 b 35 203 65 156 47 178 b 42 125 35 163 39 142 b 167 -19 56 33 93 -19 b 310 82 233 -19 275 32 b 350 182 321 99 340 131 b 314 61 347 122 335 96 b 354 4 322 32 336 17 b 411 -11 369 -6 389 -11 b 469 0 429 -11 449 -8 b 442 114 451 38 442 57 l 442 465 b 368 461 415 463 392 461 b 290 465 344 461 319 463 b 310 351 310 438 310 390 z "},"v":{"ha":457,"x_min":0,"x_max":0,"o":"m 306 -11 b 429 357 381 118 429 257 b 300 501 429 461 378 501 b 253 496 283 501 268 499 b 328 222 318 422 328 294 b 306 -11 328 140 317 58 z m 146 -11 b 242 -7 178 -8 210 -7 l 293 -8 b 314 218 308 76 314 156 b 308 321 314 264 311 300 b 204 67 300 228 247 146 b 238 157 217 103 226 126 l 176 388 b 167 439 172 404 167 421 b 171 465 167 447 168 457 b 82 460 140 463 110 460 b 0 465 53 460 26 463 b 39 376 18 446 29 408 b 125 78 67 276 99 167 b 146 -11 132 51 142 25 z "},"w":{"ha":758,"x_min":0,"x_max":0,"o":"m 449 -8 b 543 -4 481 -6 513 -4 l 594 -6 b 615 221 611 78 615 158 b 610 324 615 267 613 303 b 513 69 600 215 536 121 b 539 160 521 101 532 136 b 479 388 518 238 496 321 b 465 456 474 407 465 438 l 467 465 b 401 461 443 463 422 461 b 322 465 375 461 350 463 l 324 457 b 310 388 324 439 315 407 l 226 69 l 236 160 b 176 388 214 242 193 321 b 167 439 172 403 167 421 b 171 465 167 447 168 456 b 86 461 142 463 114 461 b 0 467 57 461 28 463 b 39 375 18 447 29 408 b 125 82 67 275 99 163 b 146 -8 132 54 142 26 b 244 -4 179 -6 213 -4 b 340 -8 276 -4 308 -6 l 385 186 b 374 342 383 229 375 294 b 449 -8 374 342 403 189 z m 606 -8 b 731 360 676 108 731 256 b 600 503 731 463 679 503 b 553 499 583 503 568 501 b 628 228 619 422 628 307 b 606 -8 628 144 617 61 z "},"x":{"ha":497,"x_min":0,"x_max":0,"o":"m 354 256 b 461 411 413 315 454 367 b 357 504 472 486 396 501 b 375 385 371 467 375 421 b 354 256 375 340 369 296 z m 143 210 b 36 53 85 150 43 99 b 140 -40 25 -22 101 -37 b 122 79 126 -3 122 44 b 143 210 122 124 128 168 z m 44 421 l 165 250 l 201 267 b 161 218 186 254 168 233 b 136 110 144 185 139 146 b 139 24 135 82 135 51 b 208 114 151 56 181 86 b 268 169 228 132 250 153 b 249 133 263 158 256 149 l 311 46 b 324 11 319 35 324 22 b 321 0 324 7 324 3 b 401 4 347 3 375 4 b 497 0 435 4 468 1 b 453 46 479 10 464 29 l 325 226 b 332 238 328 231 331 233 b 361 356 351 274 358 315 b 358 442 364 383 363 414 b 257 321 342 397 290 353 l 186 421 b 174 453 178 431 174 443 b 176 465 174 457 175 461 b 89 460 146 461 117 460 b 0 465 57 460 28 463 b 44 421 18 456 32 438 z "},"y":{"ha":478,"x_min":0,"x_max":0,"o":"m 165 217 l 165 351 b 185 465 165 389 165 438 b 89 461 153 463 121 461 b 14 465 63 461 38 463 b 33 351 33 431 33 388 l 33 251 b 182 128 35 161 136 129 b 165 217 167 147 165 183 z m 369 -197 b 444 42 415 -150 444 -72 l 444 351 b 464 465 444 389 444 438 b 381 460 438 461 408 460 b 293 465 350 460 319 463 b 313 351 311 438 313 390 l 313 188 b 201 113 293 131 246 113 b 33 200 132 113 71 128 b 197 -19 39 47 97 -19 b 311 61 250 -19 286 21 b 371 185 342 106 358 149 b 310 21 363 140 349 79 b 303 -92 308 -25 307 -61 b 250 -199 296 -137 282 -169 b 157 -236 225 -221 192 -235 b 232 -250 179 -244 204 -250 b 369 -197 285 -250 332 -233 z m 154 -224 b 247 -183 192 -224 224 -208 b 293 -78 275 -156 292 -118 b 222 -126 292 -97 251 -126 b 192 -112 206 -126 192 -122 b 206 -99 192 -104 199 -99 b 214 -101 208 -99 211 -100 b 144 -39 214 -67 190 -39 b 65 -124 100 -39 65 -74 b 154 -224 65 -161 94 -224 z "},"z":{"ha":414,"x_min":0,"x_max":0,"o":"m 175 282 b 14 118 100 251 8 221 b 135 -14 18 47 64 0 b 158 -15 142 -15 149 -17 b 240 39 192 -8 221 11 b 263 132 261 69 267 100 b 211 115 253 122 233 117 b 179 115 201 114 190 114 b 143 129 165 118 156 122 b 114 172 129 139 117 154 b 121 215 113 188 115 203 b 146 253 128 231 136 242 b 175 282 154 264 164 272 z m 188 -18 b 219 -17 197 -18 208 -18 b 399 132 315 -6 404 42 b 318 214 396 193 357 218 b 253 169 293 211 268 196 b 276 129 267 163 274 149 b 258 44 279 100 274 69 b 188 -18 244 21 225 -3 z m 221 485 b 189 478 210 486 200 483 b 143 439 171 468 156 456 b 117 357 125 415 115 386 b 154 383 125 369 139 379 b 201 383 171 388 186 388 b 238 350 218 379 231 369 b 197 283 247 325 222 304 b 174 265 189 278 182 272 b 139 225 161 253 149 240 b 126 179 131 211 125 196 b 154 138 128 161 139 146 b 224 213 146 160 167 194 b 361 400 303 236 407 292 b 221 485 339 449 285 481 z m 108 324 b 117 417 100 354 103 388 b 175 483 128 443 149 469 b 114 469 154 481 133 476 b 33 386 65 453 38 418 b 108 324 29 353 60 324 z "},"{":{"ha":339,"x_min":0,"x_max":0,"o":"m 297 846 b 42 364 0 846 229 453 l 42 340 b 297 -142 229 251 0 -142 l 294 -112 b 110 353 85 -112 331 296 b 294 817 331 408 85 817 z "},"|":{"ha":219,"x_min":0,"x_max":0,"o":"m 61 -22 b 42 -136 61 -61 60 -108 b 178 -136 100 -129 124 -129 b 158 -22 160 -107 158 -60 l 158 735 b 178 849 158 772 160 819 b 42 849 124 842 100 842 b 61 735 60 821 61 774 z "},"}":{"ha":339,"x_min":0,"x_max":0,"o":"m 42 846 l 44 817 b 229 353 254 817 8 408 b 44 -112 8 296 254 -112 l 42 -142 b 297 340 339 -142 110 251 l 297 364 b 42 846 110 453 339 846 z "},"~":{"ha":561,"x_min":0,"x_max":0,"o":"m 519 443 b 281 443 519 443 440 351 b 42 443 118 535 42 443 l 42 346 b 281 346 42 346 117 436 b 519 346 435 261 519 346 z "},"¡":{"ha":268,"x_min":0,"x_max":0,"o":"m 135 299 b 226 390 185 299 226 339 b 135 483 226 442 185 483 b 42 390 83 483 42 442 b 135 299 42 339 83 299 z m 61 1 b 67 -56 61 -21 64 -37 b 126 -199 78 -107 99 -156 b 224 -290 151 -236 186 -275 b 203 224 211 -119 203 51 b 65 224 163 218 113 218 b 61 1 64 149 64 75 z m 193 -287 b 110 -196 158 -264 132 -231 b 58 -72 86 -157 68 -115 b 44 -290 54 -144 50 -218 b 193 -287 92 -286 146 -285 z "},"¢":{"ha":471,"x_min":0,"x_max":0,"o":"m 203 482 b 81 404 157 468 108 438 b 32 239 47 361 32 306 b 71 97 32 185 43 139 b 203 -8 104 46 150 8 b 185 -96 203 -40 199 -74 b 326 -96 243 -90 272 -89 b 308 -17 314 -76 310 -46 b 447 115 393 -3 444 60 b 353 215 449 175 421 225 b 322 138 357 188 343 157 b 308 75 317 115 308 75 l 308 485 b 326 571 308 517 313 550 b 185 571 272 565 243 565 b 203 482 200 547 203 514 z m 203 358 l 203 142 b 165 239 179 165 165 200 b 188 335 165 272 172 307 b 204 399 194 365 200 378 b 203 358 204 379 203 358 z m 318 371 b 328 336 326 364 331 349 b 424 390 358 361 399 382 b 318 483 411 446 364 472 z "},"¦":{"ha":219,"x_min":0,"x_max":0,"o":"m 158 306 l 60 306 l 60 -22 b 57 -82 60 -42 58 -61 b 42 -136 56 -103 50 -121 b 178 -136 89 -129 135 -129 b 161 -82 168 -121 163 -103 b 158 -22 160 -61 158 -40 z m 158 407 l 158 735 b 161 794 158 753 160 774 b 178 849 163 815 168 833 b 42 849 135 842 89 842 b 57 796 50 833 56 817 b 60 735 58 775 60 754 l 60 407 z "},"§":{"ha":599,"x_min":0,"x_max":0,"o":"m 350 640 b 286 569 304 640 286 601 b 394 489 286 514 343 489 b 457 504 418 489 439 494 b 403 513 438 503 421 504 b 369 543 389 518 376 529 b 358 581 363 554 360 567 b 388 632 358 604 374 629 b 350 640 374 638 361 640 z m 324 474 b 410 396 342 461 379 433 b 451 304 439 358 449 328 b 425 206 457 267 446 232 b 451 136 439 185 449 158 b 399 1 458 86 435 35 b 279 -32 369 -25 331 -39 b 214 14 249 -28 226 -8 b 254 -94 218 -24 231 -61 b 300 -142 268 -114 288 -132 b 379 -167 310 -150 346 -174 b 569 53 489 -142 563 -67 b 557 153 572 93 567 125 b 569 221 564 174 568 196 b 567 283 571 244 569 264 b 435 436 553 368 499 408 b 324 474 399 451 357 464 z m 207 774 b 63 625 133 749 74 696 b 79 504 56 578 63 538 b 63 457 71 490 65 474 b 267 206 39 307 163 236 b 414 121 344 183 392 153 b 429 65 426 103 431 85 b 432 163 443 97 443 131 b 360 261 419 200 392 232 b 292 311 342 278 317 294 b 235 350 271 325 250 338 b 197 400 217 364 204 381 b 267 374 221 389 244 381 b 414 289 344 351 392 321 b 429 233 426 271 431 253 b 432 331 443 265 443 299 b 360 429 419 369 392 400 b 292 479 342 446 317 463 b 235 518 271 493 250 506 b 194 594 210 538 193 563 b 299 683 200 656 257 679 b 425 608 375 690 424 651 b 372 572 426 561 386 564 b 408 524 375 549 389 532 b 453 517 422 517 438 515 b 489 526 467 517 479 518 b 529 635 517 554 532 593 b 460 749 525 679 493 725 b 381 782 435 765 408 776 b 310 790 354 788 333 790 b 207 774 276 790 229 781 z m 140 164 b 28 33 85 163 28 115 b 290 -176 28 -110 143 -176 b 332 -174 306 -176 318 -175 b 201 10 256 -142 210 -65 b 204 74 200 32 200 53 b 231 113 208 90 218 104 b 140 164 208 149 175 164 z "},"¨":{"ha":479,"x_min":0,"x_max":0,"o":"m 122 917 b 42 838 78 917 42 881 b 122 757 42 793 78 757 b 201 838 167 757 201 793 b 122 917 201 881 167 917 z m 358 917 b 278 838 314 917 278 881 b 358 757 278 793 314 757 b 438 838 403 757 438 793 b 358 917 438 881 403 917 z "},"«":{"ha":633,"x_min":0,"x_max":0,"o":"m 369 390 l 292 293 l 369 197 b 425 104 393 167 425 128 b 592 104 475 110 529 110 b 499 197 556 126 524 165 b 421 293 475 226 447 261 l 499 390 b 592 483 524 421 554 460 b 425 483 533 478 479 479 b 369 390 425 461 394 422 z m 119 390 l 42 293 l 119 197 b 175 104 143 167 175 128 b 342 104 225 110 279 110 b 249 197 306 126 274 165 b 171 293 225 226 197 261 l 249 390 b 342 483 274 421 304 460 b 175 483 283 478 229 479 b 119 390 175 461 144 422 z "},"¯":{"ha":433,"x_min":0,"x_max":0,"o":"m 392 810 l 392 896 l 42 896 l 42 810 z "},"°":{"ha":392,"x_min":0,"x_max":0,"o":"m 196 546 b 119 622 154 546 119 579 b 196 699 119 665 154 699 b 272 622 239 699 272 664 b 196 546 272 579 239 546 z m 196 468 b 350 622 282 468 350 539 b 196 776 350 707 283 776 b 42 622 110 776 42 708 b 196 468 42 538 107 468 z "},"±":{"ha":515,"x_min":0,"x_max":0,"o":"m 474 0 b 469 60 471 19 469 40 b 474 129 469 85 471 107 b 400 121 458 126 433 124 b 258 117 367 118 319 117 b 115 121 197 117 149 118 b 42 129 82 124 57 126 b 46 71 44 110 46 90 b 42 0 46 46 44 22 b 115 10 57 4 82 7 b 258 14 149 13 197 14 b 400 10 319 14 367 13 b 474 0 433 7 458 4 z m 321 349 b 400 346 353 349 379 347 b 474 336 435 343 458 339 b 474 465 468 382 468 425 b 400 457 458 463 435 460 b 321 453 379 454 353 454 b 321 349 319 426 319 375 z m 206 336 b 201 258 204 306 203 279 b 193 185 199 225 196 200 b 322 185 239 190 282 190 b 313 258 318 200 315 225 b 308 336 311 279 310 306 b 206 336 274 338 239 338 z m 201 543 b 206 453 203 519 204 489 b 114 457 168 453 138 454 b 42 465 81 460 57 463 b 42 336 47 419 47 376 b 114 346 57 339 81 343 b 201 349 138 347 167 349 b 308 349 239 350 278 350 b 308 456 307 388 308 421 b 313 543 310 492 311 521 b 322 617 315 578 318 601 b 193 617 276 611 233 611 b 201 543 196 601 199 578 z "},"´":{"ha":410,"x_min":0,"x_max":0,"o":"m 293 915 l 42 688 l 83 640 l 368 833 z "},"¶":{"ha":650,"x_min":0,"x_max":0,"o":"m 396 718 l 467 718 l 467 114 b 464 54 467 94 465 75 b 449 0 463 33 457 15 b 585 0 496 7 542 7 b 568 54 575 15 569 33 b 565 114 567 75 565 96 l 565 718 l 608 718 l 608 793 l 308 793 b 114 728 226 793 163 771 b 42 556 65 685 42 626 b 110 390 42 488 64 433 b 297 319 154 347 217 324 l 297 114 b 294 54 297 94 296 75 b 279 0 293 33 288 15 b 415 0 326 7 372 7 b 399 54 406 15 400 33 b 396 114 397 75 396 96 z "},"·":{"ha":268,"x_min":0,"x_max":0,"o":"m 135 485 b 42 392 83 485 42 443 b 135 300 42 342 83 300 b 226 392 185 300 226 342 b 135 485 226 443 185 485 z "},"∙":{"ha":268,"x_min":0,"x_max":0,"o":"m 135 485 b 42 392 83 485 42 443 b 135 300 42 342 83 300 b 226 392 185 300 226 342 b 135 485 226 443 185 485 z "},"¸":{"ha":360,"x_min":0,"x_max":0,"o":"m 169 -250 b 318 -139 263 -250 318 -207 b 194 -33 318 -71 271 -33 b 153 -37 182 -35 167 -35 l 178 33 l 135 33 l 103 -86 b 126 -85 111 -85 118 -85 b 228 -139 186 -85 228 -100 b 144 -199 228 -181 201 -199 b 42 -164 114 -199 81 -187 l 42 -228 b 169 -250 78 -243 121 -250 z "},"»":{"ha":633,"x_min":0,"x_max":0,"o":"m 264 390 b 208 483 239 422 208 461 b 42 483 154 479 100 478 b 135 390 79 460 110 421 l 213 293 b 135 197 186 261 158 226 b 42 104 110 165 78 126 b 210 104 104 110 158 110 b 264 197 210 128 240 167 l 342 293 z m 514 390 b 458 483 489 422 458 461 b 292 483 404 479 350 478 b 385 390 329 460 360 421 l 463 293 b 385 197 436 261 408 226 b 292 104 360 165 328 126 b 460 104 354 110 408 110 b 514 197 460 128 490 167 l 592 293 z "},"¿":{"ha":539,"x_min":0,"x_max":0,"o":"m 289 540 b 196 449 238 540 196 499 b 289 356 196 397 238 356 b 381 449 339 356 381 397 b 289 540 381 499 339 540 z m 281 199 b 242 78 275 156 260 115 b 363 243 297 133 363 185 b 297 328 363 288 342 328 b 229 276 264 328 229 310 b 235 250 229 268 231 260 b 258 271 238 261 246 269 b 271 267 264 271 268 271 b 281 199 285 249 283 221 z m 344 -100 b 263 -129 325 -119 296 -129 b 167 -61 214 -129 167 -106 b 200 29 167 -28 179 1 b 215 54 206 38 211 46 b 253 138 231 81 243 108 b 269 232 263 168 272 200 b 75 38 240 172 121 121 b 42 -71 54 1 42 -35 b 67 -156 42 -100 50 -128 b 190 -246 94 -203 133 -235 b 224 -243 204 -250 211 -249 b 285 -196 247 -232 267 -215 b 344 -100 311 -167 332 -132 z m 233 -251 b 288 -250 263 -253 275 -251 b 497 -74 426 -237 497 -157 b 432 8 497 -37 472 -6 b 371 15 407 17 392 17 b 376 -39 376 -3 379 -19 b 319 -172 367 -90 347 -132 b 233 -251 293 -210 265 -236 z "},"À":{"ha":633,"x_min":0,"x_max":0,"o":"m 489 792 l 490 797 l 274 944 b 201 967 236 967 218 972 b 164 908 171 960 157 935 b 218 865 169 889 188 875 z m 246 89 b 297 146 275 90 297 113 b 290 181 297 157 296 168 b 269 175 283 176 276 175 b 238 218 246 175 239 196 b 340 307 238 289 297 307 l 361 306 b 265 332 331 324 299 332 b 140 203 167 331 140 264 b 239 89 140 139 182 89 z m 619 -7 b 569 107 593 21 581 68 l 424 653 b 407 740 417 681 407 714 b 411 767 407 750 408 760 b 310 763 379 764 344 763 b 221 767 279 763 249 764 b 225 738 224 758 225 749 b 210 653 225 713 217 681 b 63 107 161 474 108 274 b 14 -7 53 68 40 21 b 110 -1 44 -3 78 -1 b 199 -7 142 -1 172 -3 b 194 21 196 1 194 10 b 204 79 194 39 199 60 b 128 208 149 106 128 156 b 274 344 128 335 238 344 l 310 475 b 299 568 304 511 301 539 l 365 321 b 431 246 392 304 419 268 b 396 281 419 258 408 269 b 335 293 386 290 356 293 b 251 228 271 293 251 253 l 251 224 b 265 229 256 228 260 229 b 300 217 276 229 290 222 b 438 22 357 188 438 101 b 433 -7 438 11 436 1 b 524 -1 460 -3 490 -1 b 619 -7 556 -1 589 -3 z "},"Á":{"ha":633,"x_min":0,"x_max":0,"o":"m 164 792 l 435 865 b 489 908 465 875 483 889 b 453 967 496 935 482 960 b 379 944 435 972 417 967 l 163 797 z m 246 89 b 297 146 275 90 297 113 b 290 181 297 157 296 168 b 269 175 283 176 276 175 b 238 218 246 175 239 196 b 340 307 238 289 297 307 l 361 306 b 265 332 331 324 299 332 b 140 203 167 331 140 264 b 239 89 140 139 182 89 z m 619 -7 b 569 107 593 21 581 68 l 424 653 b 407 740 417 681 407 714 b 411 767 407 750 408 760 b 310 763 379 764 344 763 b 221 767 279 763 249 764 b 225 738 224 758 225 749 b 210 653 225 713 217 681 b 63 107 161 474 108 274 b 14 -7 53 68 40 21 b 110 -1 44 -3 78 -1 b 199 -7 142 -1 172 -3 b 194 21 196 1 194 10 b 204 79 194 39 199 60 b 128 208 149 106 128 156 b 274 344 128 335 238 344 l 310 475 b 299 568 304 511 301 539 l 365 321 b 431 246 392 304 419 268 b 396 281 419 258 408 269 b 335 293 386 290 356 293 b 251 228 271 293 251 253 l 251 224 b 265 229 256 228 260 229 b 300 217 276 229 290 222 b 438 22 357 188 438 101 b 433 -7 438 11 436 1 b 524 -1 460 -3 490 -1 b 619 -7 556 -1 589 -3 z "},"Â":{"ha":633,"x_min":0,"x_max":0,"o":"m 475 792 l 349 967 l 283 967 l 157 792 l 222 792 l 317 899 l 410 792 z m 246 89 b 297 146 275 90 297 113 b 290 181 297 157 296 168 b 269 175 283 176 276 175 b 238 218 246 175 239 196 b 340 307 238 289 297 307 l 361 306 b 265 332 331 324 299 332 b 140 203 167 331 140 264 b 239 89 140 139 182 89 z m 619 -7 b 569 107 593 21 581 68 l 424 653 b 407 740 417 681 407 714 b 411 767 407 750 408 760 b 310 763 379 764 344 763 b 221 767 279 763 249 764 b 225 738 224 758 225 749 b 210 653 225 713 217 681 b 63 107 161 474 108 274 b 14 -7 53 68 40 21 b 110 -1 44 -3 78 -1 b 199 -7 142 -1 172 -3 b 194 21 196 1 194 10 b 204 79 194 39 199 60 b 128 208 149 106 128 156 b 274 344 128 335 238 344 l 310 475 b 299 568 304 511 301 539 l 365 321 b 431 246 392 304 419 268 b 396 281 419 258 408 269 b 335 293 386 290 356 293 b 251 228 271 293 251 253 l 251 224 b 265 229 256 228 260 229 b 300 217 276 229 290 222 b 438 22 357 188 438 101 b 433 -7 438 11 436 1 b 524 -1 460 -3 490 -1 b 619 -7 556 -1 589 -3 z "},"Ã":{"ha":633,"x_min":0,"x_max":0,"o":"m 376 821 b 511 950 454 821 494 886 l 475 950 b 415 911 463 924 442 911 b 332 931 389 911 361 918 b 249 950 301 943 275 950 b 122 821 183 950 139 888 l 158 821 b 215 863 171 849 189 863 b 299 842 242 863 269 856 b 376 821 328 828 354 821 z m 246 89 b 297 146 275 90 297 113 b 290 181 297 157 296 168 b 269 175 283 176 276 175 b 238 218 246 175 239 196 b 340 307 238 289 297 307 l 361 306 b 265 332 331 324 299 332 b 140 203 167 331 140 264 b 239 89 140 139 182 89 z m 619 -7 b 569 107 593 21 581 68 l 424 653 b 407 740 417 681 407 714 b 411 767 407 750 408 760 b 310 763 379 764 344 763 b 221 767 279 763 249 764 b 225 738 224 758 225 749 b 210 653 225 713 217 681 b 63 107 161 474 108 274 b 14 -7 53 68 40 21 b 110 -1 44 -3 78 -1 b 199 -7 142 -1 172 -3 b 194 21 196 1 194 10 b 204 79 194 39 199 60 b 128 208 149 106 128 156 b 274 344 128 335 238 344 l 310 475 b 299 568 304 511 301 539 l 365 321 b 431 246 392 304 419 268 b 396 281 419 258 408 269 b 335 293 386 290 356 293 b 251 228 271 293 251 253 l 251 224 b 265 229 256 228 260 229 b 300 217 276 229 290 222 b 438 22 357 188 438 101 b 433 -7 438 11 436 1 b 524 -1 460 -3 490 -1 b 619 -7 556 -1 589 -3 z "},"Ä":{"ha":633,"x_min":0,"x_max":0,"o":"m 229 940 b 169 881 196 940 169 914 b 229 821 169 847 196 821 b 290 881 263 821 290 847 b 229 940 290 914 263 940 z m 410 940 b 350 881 376 940 350 914 b 410 821 350 847 376 821 b 471 881 443 821 471 847 b 410 940 471 914 443 940 z m 246 89 b 297 146 275 90 297 113 b 290 181 297 157 296 168 b 269 175 283 176 276 175 b 238 218 246 175 239 196 b 340 307 238 289 297 307 l 361 306 b 265 332 331 324 299 332 b 140 203 167 331 140 264 b 239 89 140 139 182 89 z m 619 -7 b 569 107 593 21 581 68 l 424 653 b 407 740 417 681 407 714 b 411 767 407 750 408 760 b 310 763 379 764 344 763 b 221 767 279 763 249 764 b 225 738 224 758 225 749 b 210 653 225 713 217 681 b 63 107 161 474 108 274 b 14 -7 53 68 40 21 b 110 -1 44 -3 78 -1 b 199 -7 142 -1 172 -3 b 194 21 196 1 194 10 b 204 79 194 39 199 60 b 128 208 149 106 128 156 b 274 344 128 335 238 344 l 310 475 b 299 568 304 511 301 539 l 365 321 b 431 246 392 304 419 268 b 396 281 419 258 408 269 b 335 293 386 290 356 293 b 251 228 271 293 251 253 l 251 224 b 265 229 256 228 260 229 b 300 217 276 229 290 222 b 438 22 357 188 438 101 b 433 -7 438 11 436 1 b 524 -1 460 -3 490 -1 b 619 -7 556 -1 589 -3 z "},"Å":{"ha":633,"x_min":0,"x_max":0,"o":"m 235 915 b 200 833 213 893 200 867 b 221 767 200 808 207 786 b 225 738 224 758 225 749 b 210 653 225 713 217 681 b 63 107 161 474 108 274 b 14 -7 53 68 40 21 b 110 -1 44 -3 78 -1 b 199 -7 142 -1 172 -3 b 194 21 196 1 194 10 b 204 79 194 39 199 60 b 128 208 149 106 128 154 b 274 344 128 335 238 344 l 310 475 b 299 568 304 511 301 539 l 365 321 b 431 246 392 304 419 268 b 396 281 419 258 408 269 b 335 293 386 290 356 293 b 251 228 271 293 251 253 l 251 224 b 265 228 256 226 260 228 b 300 217 276 228 290 222 b 438 22 357 188 438 101 b 433 -7 438 11 436 1 b 524 -1 460 -3 490 -1 b 619 -7 556 -1 589 -3 b 569 107 593 21 581 68 l 424 653 b 407 740 417 681 407 714 b 411 767 407 750 408 760 b 433 833 425 786 433 808 b 399 914 433 865 421 892 b 317 950 376 936 349 950 b 235 915 283 951 256 938 z m 317 903 b 367 883 336 903 353 896 b 388 833 381 869 388 853 b 367 783 388 814 381 797 b 317 763 353 769 336 763 b 267 783 297 763 281 769 b 247 833 253 797 247 814 b 267 883 247 853 253 869 b 317 903 281 896 297 903 z m 246 89 b 297 146 275 90 297 113 b 290 181 297 157 296 168 b 269 175 283 176 276 175 b 238 218 246 175 239 196 b 340 307 238 288 297 307 l 361 306 b 265 332 331 324 299 332 b 140 203 167 331 140 264 b 239 89 140 139 182 89 z "},"Æ":{"ha":954,"x_min":0,"x_max":0,"o":"m 419 0 l 660 3 b 940 157 771 6 896 54 b 868 133 915 142 896 133 b 690 138 811 133 776 138 b 510 83 632 138 568 126 b 581 138 531 111 567 132 l 581 357 b 511 371 557 363 539 367 l 693 371 b 806 351 732 371 778 369 b 803 417 804 376 803 397 b 806 475 803 435 804 454 l 581 475 l 581 636 b 511 651 557 643 536 647 l 811 651 b 925 633 850 651 897 651 b 918 701 919 657 918 679 b 922 756 918 721 919 740 b 686 751 839 753 763 751 b 210 757 601 751 276 756 l 210 743 b 196 654 210 707 201 672 b 49 114 147 476 94 279 b 0 0 39 75 26 28 b 96 6 31 4 64 6 b 185 0 128 6 158 4 b 181 28 182 8 181 17 b 190 86 181 46 185 67 b 114 214 135 111 114 161 b 260 349 114 339 224 349 l 338 638 b 278 657 308 651 278 657 l 439 656 l 439 228 b 321 299 397 271 375 299 b 238 229 256 299 238 258 b 251 233 242 232 246 233 b 286 222 263 233 276 228 b 424 29 343 193 424 108 b 419 0 424 18 419 0 z m 232 96 b 283 151 261 99 283 119 b 276 186 283 163 282 174 b 256 181 269 182 263 181 b 224 224 232 181 225 201 b 326 311 224 293 283 311 l 347 310 b 258 336 318 326 289 336 b 126 208 157 336 126 276 b 232 96 126 139 172 90 z m 939 0 b 936 69 936 21 936 46 b 938 125 936 88 936 107 b 751 3 893 53 811 17 z "},"Ç":{"ha":667,"x_min":0,"x_max":0,"o":"m 310 -31 b 274 -24 297 -31 285 -28 b 263 -65 269 -39 265 -53 b 257 -89 261 -74 258 -82 b 354 -100 292 -85 324 -87 b 383 -144 374 -107 383 -122 b 299 -201 382 -182 354 -201 b 196 -167 269 -201 235 -190 l 196 -231 b 324 -253 232 -246 275 -253 b 433 -222 369 -253 407 -243 b 472 -142 460 -201 472 -175 b 439 -62 472 -107 461 -81 b 356 -37 418 -46 390 -37 b 307 -40 338 -37 322 -39 b 310 -31 308 -37 308 -33 z m 331 724 b 267 638 306 701 281 665 b 363 672 292 660 322 672 b 469 585 413 671 464 633 b 415 540 475 519 426 529 b 439 615 383 572 428 614 b 308 503 343 658 296 569 b 407 414 315 467 347 425 b 596 568 535 390 596 485 b 428 767 596 674 521 742 b 383 761 414 771 399 768 b 331 724 364 753 346 739 z m 385 775 b 318 778 361 778 340 779 b 28 388 124 761 26 557 b 364 -19 29 179 132 -21 b 454 -8 399 -19 428 -15 b 299 92 388 6 338 43 b 222 215 267 131 249 165 b 190 386 200 260 190 319 b 219 567 190 456 200 517 b 278 681 235 607 254 646 b 385 775 310 728 346 761 z m 351 57 b 432 11 367 42 401 21 b 506 13 460 3 486 3 b 560 53 525 24 542 36 b 639 228 608 100 639 161 b 488 350 639 294 599 357 b 360 125 526 260 464 124 b 271 154 326 125 296 135 b 351 57 293 118 314 86 z "},"È":{"ha":576,"x_min":0,"x_max":0,"o":"m 447 792 l 449 797 l 232 944 b 160 967 194 967 176 972 b 122 908 129 960 115 935 b 176 865 128 889 146 875 z m 547 -6 b 544 65 544 15 544 40 b 546 121 544 83 544 103 b 476 49 529 94 501 65 b 360 -3 436 21 393 4 z m 268 -3 b 444 43 338 -1 394 15 b 549 154 485 65 529 107 b 469 131 522 138 501 129 b 299 135 413 131 374 135 b 118 79 240 135 176 124 b 189 135 139 107 175 129 l 189 360 b 119 372 165 364 147 368 l 301 372 b 414 354 340 372 386 371 b 411 419 413 379 411 400 b 414 481 411 439 413 458 l 189 481 l 189 644 b 119 660 165 650 144 654 l 419 660 b 533 640 458 660 506 660 b 528 708 531 665 529 690 b 531 765 528 728 529 749 b 294 761 447 763 371 761 b 28 765 210 761 125 763 b 47 654 46 738 47 690 l 47 119 b 28 -6 47 71 47 25 b 268 -3 103 -6 186 -4 z "},"É":{"ha":576,"x_min":0,"x_max":0,"o":"m 150 792 l 421 865 b 475 908 451 875 469 889 b 439 967 482 935 468 960 b 365 944 421 972 403 967 l 149 797 z m 547 -6 b 544 65 544 15 544 40 b 546 121 544 83 544 103 b 476 49 529 94 501 65 b 360 -3 436 21 393 4 z m 268 -3 b 444 43 338 -1 394 15 b 549 154 485 65 529 107 b 469 131 522 138 501 129 b 299 135 413 131 374 135 b 118 79 240 135 176 124 b 189 135 139 107 175 129 l 189 360 b 119 372 165 364 147 368 l 301 372 b 414 354 340 372 386 371 b 411 419 413 379 411 400 b 414 481 411 439 413 458 l 189 481 l 189 644 b 119 660 165 650 144 654 l 419 660 b 533 640 458 660 506 660 b 528 708 531 665 529 690 b 531 765 528 728 529 749 b 294 761 447 763 371 761 b 28 765 210 761 125 763 b 47 654 46 738 47 690 l 47 119 b 28 -6 47 71 47 25 b 268 -3 103 -6 186 -4 z "},"Ê":{"ha":576,"x_min":0,"x_max":0,"o":"m 454 792 l 328 967 l 263 967 l 136 792 l 201 792 l 296 899 l 389 792 z m 547 -6 b 544 65 544 15 544 40 b 546 121 544 83 544 103 b 476 49 529 94 501 65 b 360 -3 436 21 393 4 z m 268 -3 b 444 43 338 -1 394 15 b 549 154 485 65 529 107 b 469 131 522 138 501 129 b 299 135 413 131 374 135 b 118 79 240 135 176 124 b 189 135 139 107 175 129 l 189 360 b 119 372 165 364 147 368 l 301 372 b 414 354 340 372 386 371 b 411 419 413 379 411 400 b 414 481 411 439 413 458 l 189 481 l 189 644 b 119 660 165 650 144 654 l 419 660 b 533 640 458 660 506 660 b 528 708 531 665 529 690 b 531 765 528 728 529 749 b 294 761 447 763 371 761 b 28 765 210 761 125 763 b 47 654 46 738 47 690 l 47 119 b 28 -6 47 71 47 25 b 268 -3 103 -6 186 -4 z "},"Ë":{"ha":576,"x_min":0,"x_max":0,"o":"m 210 940 b 150 881 176 940 150 914 b 210 821 150 847 176 821 b 271 881 243 821 271 847 b 210 940 271 914 243 940 z m 390 940 b 331 881 357 940 331 914 b 390 821 331 847 357 821 b 451 881 424 821 451 847 b 390 940 451 914 424 940 z m 547 -6 b 544 65 544 15 544 40 b 546 121 544 83 544 103 b 476 49 529 94 501 65 b 360 -3 436 21 393 4 z m 268 -3 b 444 43 338 -1 394 15 b 549 154 485 65 529 107 b 469 131 522 138 501 129 b 299 135 413 131 374 135 b 118 79 240 135 176 124 b 189 135 139 107 175 129 l 189 360 b 119 372 165 364 147 368 l 301 372 b 414 354 340 372 386 371 b 411 419 413 379 411 400 b 414 481 411 439 413 458 l 189 481 l 189 644 b 119 660 165 650 144 654 l 419 660 b 533 640 458 660 506 660 b 528 708 531 665 529 690 b 531 765 528 728 529 749 b 294 761 447 763 371 761 b 28 765 210 761 125 763 b 47 654 46 738 47 690 l 47 119 b 28 -6 47 71 47 25 b 268 -3 103 -6 186 -4 z "},"Ì":{"ha":292,"x_min":0,"x_max":0,"o":"m 322 792 l 324 797 l 107 944 b 35 967 69 967 51 972 b -3 908 4 960 -10 935 b 53 865 3 889 21 875 z m 147 -1 b 206 -4 168 -1 188 -3 b 126 75 164 22 140 54 b 75 213 100 119 85 168 l 75 106 b 56 -7 75 67 74 21 b 147 -1 85 -4 117 -1 z m 217 106 l 217 651 b 236 764 217 688 217 736 b 153 758 210 760 182 758 b 56 764 119 758 86 761 b 75 651 74 736 75 689 l 75 336 b 117 121 75 268 86 189 b 236 -7 142 65 181 18 b 217 106 217 21 217 68 z "},"Í":{"ha":292,"x_min":0,"x_max":0,"o":"m -22 792 l 247 865 b 301 908 279 875 296 889 b 265 967 308 935 294 960 b 192 944 247 972 229 969 l -25 797 z m 147 -1 b 206 -4 168 -1 188 -3 b 126 75 164 22 140 54 b 75 213 100 119 85 168 l 75 106 b 56 -7 75 67 74 21 b 147 -1 85 -4 117 -1 z m 217 106 l 217 651 b 236 764 217 688 217 736 b 153 758 210 760 182 758 b 56 764 119 758 86 761 b 75 651 74 736 75 689 l 75 336 b 117 121 75 268 86 189 b 236 -7 142 65 181 18 b 217 106 217 21 217 68 z "},"Î":{"ha":292,"x_min":0,"x_max":0,"o":"m 304 792 l 178 967 l 113 967 l -14 792 l 51 792 l 146 899 l 239 792 z m 147 -1 b 206 -4 167 -1 188 -3 b 126 75 164 22 140 54 b 75 213 100 119 85 168 l 75 106 b 56 -7 75 67 74 21 b 147 -1 85 -4 117 -1 z m 217 106 l 217 651 b 236 764 217 688 217 736 b 151 758 210 760 181 758 b 56 764 119 758 86 761 b 75 651 74 736 75 689 l 74 457 l 75 336 b 117 121 75 268 86 189 b 236 -7 142 65 181 18 b 217 106 217 21 217 68 z "},"Ï":{"ha":292,"x_min":0,"x_max":0,"o":"m 53 940 b -7 881 19 940 -7 914 b 53 821 -7 847 19 821 b 114 881 86 821 114 847 b 53 940 114 914 86 940 z m 233 940 b 174 881 200 940 174 914 b 233 821 174 847 200 821 b 294 881 267 821 294 847 b 233 940 294 914 267 940 z m 147 -1 b 206 -4 167 -1 188 -3 b 126 75 164 22 140 54 b 75 213 100 119 85 168 l 75 106 b 56 -7 75 67 74 21 b 147 -1 85 -4 117 -1 z m 217 106 l 217 651 b 236 764 217 688 217 736 b 151 758 210 760 181 758 b 56 764 119 758 86 761 b 75 651 74 736 75 689 l 74 457 l 75 336 b 117 121 75 268 86 189 b 236 -7 142 65 181 18 b 217 106 217 21 217 68 z "},"Ñ":{"ha":590,"x_min":0,"x_max":0,"o":"m 361 814 b 496 943 439 814 479 879 l 460 943 b 400 904 447 917 426 904 b 317 924 374 904 346 911 b 233 943 286 936 260 943 b 107 814 168 943 124 881 l 143 814 b 200 856 156 842 174 856 b 283 835 226 856 254 849 b 361 814 313 821 339 814 z m 563 -7 b 543 92 544 24 543 57 l 543 438 b 528 546 543 489 542 503 b 382 763 494 653 442 725 b 400 650 400 735 400 688 l 400 204 b 371 368 400 204 386 324 b 208 764 307 479 224 621 b 115 760 178 761 146 760 b 28 764 85 760 56 761 b 46 667 44 733 46 701 l 47 319 b 61 211 47 268 47 254 b 208 -6 94 104 149 32 b 190 107 190 22 190 69 l 190 388 b 131 525 172 433 151 479 l 190 435 b 381 -7 267 311 368 133 b 474 -3 411 -4 443 -3 b 563 -7 503 -3 535 -7 z m 29 -7 b 125 -1 60 -3 93 -1 l 183 -3 b 47 215 113 49 72 133 l 46 179 l 47 119 b 29 -7 47 69 44 18 z m 543 542 l 543 642 b 561 764 543 690 546 739 b 464 758 531 760 497 758 b 407 761 444 758 425 760 b 543 542 475 708 519 622 z "},"Ò":{"ha":665,"x_min":0,"x_max":0,"o":"m 489 792 l 490 797 l 274 944 b 201 967 236 967 218 972 b 164 908 171 960 157 935 b 218 865 169 889 188 875 z m 132 688 b 31 324 43 589 19 451 b 176 29 40 214 81 97 b 233 -1 193 17 213 6 b 346 51 271 -14 311 14 b 414 163 374 83 397 122 b 354 126 401 147 381 132 b 233 189 304 115 257 143 b 197 372 208 236 199 308 b 93 521 132 393 99 458 b 132 688 88 599 113 654 z m 336 778 b 193 739 288 778 229 764 b 107 572 147 706 114 642 b 285 371 97 471 138 367 b 401 492 349 374 399 431 b 246 600 404 563 346 646 b 272 517 258 599 307 551 b 225 572 260 503 207 506 b 332 672 243 642 290 672 b 431 582 381 672 413 619 b 464 317 467 506 474 406 b 400 107 456 240 438 169 b 282 -14 372 57 332 13 b 529 63 371 -29 468 -3 b 638 408 615 156 642 286 b 492 726 633 526 592 651 b 336 778 447 760 392 778 z "},"Ó":{"ha":665,"x_min":0,"x_max":0,"o":"m 171 792 l 442 865 b 496 908 472 875 490 889 b 460 967 503 935 489 960 b 386 944 442 972 424 967 l 169 797 z m 132 688 b 31 324 43 589 19 451 b 176 29 40 214 81 97 b 233 -1 193 17 213 6 b 346 51 271 -14 311 14 b 414 163 374 83 397 122 b 354 126 401 147 381 132 b 233 189 304 115 257 143 b 197 372 208 236 199 308 b 93 521 132 393 99 458 b 132 688 88 599 113 654 z m 336 778 b 193 739 288 778 229 764 b 107 572 147 706 114 642 b 285 371 97 471 138 367 b 401 492 349 374 399 431 b 246 600 404 563 346 646 b 272 517 258 599 307 551 b 225 572 260 503 207 506 b 332 672 243 642 290 672 b 431 582 381 672 413 619 b 464 317 467 506 474 406 b 400 107 456 240 438 169 b 282 -14 372 57 332 13 b 529 63 371 -29 468 -3 b 638 408 615 156 642 286 b 492 726 633 526 592 651 b 336 778 447 760 392 778 z "},"Ô":{"ha":665,"x_min":0,"x_max":0,"o":"m 492 792 l 365 967 l 300 967 l 174 792 l 239 792 l 333 899 l 426 792 z m 132 688 b 31 324 43 589 19 451 b 176 29 40 214 81 97 b 233 -1 193 17 213 6 b 346 51 271 -14 311 14 b 414 163 374 83 397 122 b 354 126 401 147 381 132 b 233 189 304 115 257 143 b 197 372 208 236 199 308 b 93 521 132 393 99 458 b 132 688 88 599 113 654 z m 336 778 b 193 739 288 778 229 764 b 107 572 147 706 114 642 b 285 371 97 471 138 367 b 401 492 349 374 399 431 b 246 600 404 563 346 646 b 272 517 258 599 307 551 b 225 572 260 503 207 506 b 332 672 243 642 290 672 b 431 582 381 672 413 619 b 464 317 467 506 474 406 b 400 107 456 240 438 169 b 282 -14 372 57 332 13 b 529 63 371 -29 468 -3 b 638 408 615 156 642 286 b 492 726 633 526 592 651 b 336 778 447 760 392 778 z "},"Õ":{"ha":665,"x_min":0,"x_max":0,"o":"m 394 821 b 529 950 472 821 513 886 l 493 950 b 433 911 481 924 460 911 b 350 931 407 911 379 918 b 267 950 319 943 293 950 b 140 821 201 950 157 888 l 176 821 b 233 863 189 849 207 863 b 317 842 260 863 288 856 b 394 821 346 828 372 821 z m 132 688 b 31 324 43 589 19 451 b 176 29 40 214 81 97 b 233 -1 193 17 213 6 b 346 51 271 -14 311 14 b 414 163 374 83 397 122 b 354 126 401 147 381 132 b 233 189 304 115 257 143 b 197 372 208 236 199 308 b 93 521 132 393 99 458 b 132 688 88 599 113 654 z m 336 778 b 193 739 288 778 229 764 b 107 572 147 706 114 642 b 285 371 97 471 138 367 b 401 492 349 374 399 431 b 246 600 404 563 346 646 b 272 517 258 599 307 551 b 225 572 260 503 207 506 b 332 672 243 642 290 672 b 431 582 381 672 413 619 b 464 317 467 506 474 406 b 400 107 456 240 438 169 b 282 -14 372 57 332 13 b 529 63 371 -29 468 -3 b 638 408 615 156 642 286 b 492 726 633 526 592 651 b 336 778 447 760 392 778 z "},"Ö":{"ha":665,"x_min":0,"x_max":0,"o":"m 242 946 b 182 886 208 946 182 919 b 242 826 182 853 208 826 b 303 886 275 826 303 853 b 242 946 303 919 275 946 z m 422 946 b 363 886 389 946 363 919 b 422 826 363 853 389 826 b 483 886 456 826 483 853 b 422 946 483 919 456 946 z m 132 688 b 31 324 43 589 19 451 b 176 29 40 214 81 97 b 233 -1 193 17 213 6 b 346 51 271 -14 311 14 b 414 163 374 83 397 122 b 354 126 401 147 381 132 b 233 189 304 115 257 143 b 197 372 208 236 199 308 b 93 521 132 393 99 458 b 132 688 88 599 113 654 z m 336 778 b 193 739 288 778 229 764 b 107 572 147 706 114 642 b 285 371 97 471 138 367 b 401 492 349 374 399 431 b 246 600 404 563 346 646 b 272 517 258 599 307 551 b 225 572 260 503 207 506 b 332 672 243 642 290 672 b 431 582 381 672 413 619 b 464 317 467 506 474 406 b 400 107 456 240 438 169 b 282 -14 372 57 332 13 b 529 63 371 -29 468 -3 b 638 408 615 156 642 286 b 492 726 633 526 592 651 b 336 778 447 760 392 778 z "},"×":{"ha":481,"x_min":0,"x_max":0,"o":"m 240 328 b 301 261 265 301 286 279 b 347 203 324 235 339 215 b 439 293 376 239 407 269 b 381 340 426 303 407 318 b 314 401 363 356 340 376 b 381 463 340 428 363 447 b 439 508 406 485 425 500 b 347 599 401 536 371 567 b 301 542 339 586 324 568 b 240 475 286 524 265 501 b 179 542 214 501 194 524 b 133 599 157 568 142 586 b 42 508 104 563 75 532 b 100 463 54 500 74 485 b 167 401 118 447 140 428 b 100 340 140 376 118 356 b 42 293 74 318 54 303 b 133 203 78 265 108 235 b 179 261 142 217 157 236 b 240 328 194 279 214 301 z "},"Ø":{"ha":628,"x_min":0,"x_max":0,"o":"m 244 767 b 113 669 194 751 151 718 b 28 379 56 597 28 501 b 61 179 28 306 39 239 b 140 51 81 128 107 85 b 94 -18 128 26 113 3 b 221 -18 140 -11 183 -11 l 221 -3 b 251 -12 231 -7 240 -10 b 285 -1 271 -17 275 -11 b 332 68 304 22 318 44 b 379 169 350 101 365 136 b 314 146 361 153 339 146 b 283 150 303 146 293 147 b 249 97 268 128 260 115 b 269 156 253 111 265 143 l 421 540 b 443 593 431 561 439 582 b 429 513 439 568 432 526 b 440 404 436 479 440 443 b 424 261 440 350 435 303 b 392 171 415 231 404 200 b 354 83 381 140 368 111 b 286 -18 335 44 314 8 b 314 -19 294 -18 304 -19 b 468 35 374 -19 425 -1 b 565 179 511 71 543 118 b 600 379 589 239 600 306 b 515 669 600 501 572 597 b 486 703 506 682 496 693 b 533 776 497 729 514 754 b 408 776 490 769 449 769 b 408 757 410 771 410 761 b 351 774 390 765 371 771 b 321 760 333 776 329 772 b 290 707 308 742 299 725 b 254 631 276 682 264 654 b 314 661 272 650 292 661 b 360 644 331 661 346 656 b 389 685 371 660 389 685 b 371 635 389 685 379 660 b 228 272 322 511 275 390 b 213 232 222 258 217 244 b 200 274 207 244 203 258 b 188 404 192 313 188 356 b 215 564 188 465 197 518 b 268 692 233 611 247 650 b 318 776 283 722 297 750 b 244 767 289 776 267 772 z "},"Ù":{"ha":596,"x_min":0,"x_max":0,"o":"m 489 792 l 490 797 l 274 944 b 201 967 236 967 218 972 b 164 908 171 960 157 935 b 218 865 169 889 188 875 z m 299 124 b 213 164 258 124 231 140 b 267 42 224 122 239 79 b 364 -12 289 11 324 -21 b 494 69 424 1 465 32 b 549 235 536 125 549 194 l 549 353 b 476 224 536 304 511 260 b 400 160 454 199 428 178 b 299 124 367 139 338 124 z m 407 653 l 407 250 b 385 165 407 218 400 188 b 500 274 432 194 469 228 b 542 374 521 304 533 338 b 549 449 546 399 549 429 l 549 653 b 568 765 549 690 550 738 b 388 765 514 760 446 760 b 407 653 407 738 407 692 z m 313 -19 b 190 249 231 32 190 156 l 190 651 b 210 765 190 689 190 738 b 121 761 183 763 151 761 b 28 765 89 761 57 763 b 47 651 46 738 47 690 l 47 235 b 144 26 47 183 68 85 b 229 -12 164 13 189 -4 b 313 -19 247 -17 269 -19 z "},"Ú":{"ha":596,"x_min":0,"x_max":0,"o":"m 150 792 l 421 865 b 475 908 451 875 469 889 b 439 967 482 935 468 960 b 365 944 421 972 403 967 l 149 797 z m 299 124 b 213 164 258 124 231 140 b 267 42 224 122 239 79 b 364 -12 289 11 324 -21 b 494 69 424 1 465 32 b 549 235 536 125 549 194 l 549 353 b 476 224 536 304 511 260 b 400 160 454 199 428 178 b 299 124 367 139 338 124 z m 407 653 l 407 250 b 385 165 407 218 400 188 b 500 274 432 194 469 228 b 542 374 521 304 533 338 b 549 449 546 399 549 429 l 549 653 b 568 765 549 690 550 738 b 388 765 514 760 446 760 b 407 653 407 738 407 692 z m 313 -19 b 190 249 231 32 190 156 l 190 651 b 210 765 190 689 190 738 b 121 761 183 763 151 761 b 28 765 89 761 57 763 b 47 651 46 738 47 690 l 47 235 b 144 26 47 183 68 85 b 229 -12 164 13 189 -4 b 313 -19 247 -17 269 -19 z "},"Û":{"ha":596,"x_min":0,"x_max":0,"o":"m 458 792 l 332 967 l 267 967 l 140 792 l 206 792 l 300 899 l 393 792 z m 299 124 b 213 164 258 124 231 140 b 267 42 224 122 239 79 b 364 -12 289 11 324 -21 b 494 69 424 1 465 32 b 549 235 536 125 549 194 l 549 353 b 476 224 536 304 511 260 b 400 160 454 199 428 178 b 299 124 367 139 338 124 z m 407 653 l 407 250 b 385 165 407 218 400 188 b 500 274 432 194 469 228 b 542 374 521 304 533 338 b 549 449 546 399 549 429 l 549 653 b 568 765 549 690 550 738 b 388 765 514 760 446 760 b 407 653 407 738 407 692 z m 313 -19 b 190 249 231 32 190 156 l 190 651 b 210 765 190 689 190 738 b 121 761 183 763 151 761 b 28 765 89 761 57 763 b 47 651 46 738 47 690 l 47 235 b 144 26 47 183 68 85 b 229 -12 164 13 189 -4 b 313 -19 247 -17 269 -19 z "},"Ü":{"ha":596,"x_min":0,"x_max":0,"o":"m 204 940 b 144 881 171 940 144 914 b 204 821 144 847 171 821 b 265 881 238 821 265 847 b 204 940 265 914 238 940 z m 385 940 b 325 881 351 940 325 914 b 385 821 325 847 351 821 b 446 881 418 821 446 847 b 385 940 446 914 418 940 z m 299 124 b 213 164 258 124 231 140 b 267 42 224 122 239 79 b 364 -12 289 11 324 -21 b 494 69 424 1 465 32 b 549 235 536 125 549 194 l 549 353 b 476 224 536 304 511 260 b 400 160 454 199 428 178 b 299 124 367 139 338 124 z m 407 653 l 407 250 b 385 165 407 218 400 188 b 500 274 432 194 469 228 b 542 374 521 304 533 338 b 549 449 546 399 549 429 l 549 653 b 568 765 549 690 550 738 b 388 765 514 760 446 760 b 407 653 407 738 407 692 z m 313 -19 b 190 249 231 32 190 156 l 190 651 b 210 765 190 689 190 738 b 121 761 183 763 151 761 b 28 765 89 761 57 763 b 47 651 46 738 47 690 l 47 235 b 144 26 47 183 68 85 b 229 -12 164 13 189 -4 b 313 -19 247 -17 269 -19 z "},"Ý":{"ha":599,"x_min":0,"x_max":0,"o":"m 151 793 l 422 867 b 476 910 453 876 471 890 b 440 968 483 936 469 961 b 367 946 422 974 404 968 l 150 799 z m 289 21 b 375 161 347 64 368 135 b 299 124 358 138 335 124 b 175 224 215 124 175 175 b 194 278 175 243 182 263 b 147 286 181 283 164 286 b 32 171 92 286 32 251 b 156 3 32 83 79 29 b 289 21 207 -14 257 -3 z m 324 303 b 219 408 268 315 238 364 b 192 606 196 468 192 529 l 192 635 b 213 767 192 678 192 733 b 124 761 183 763 153 761 b 28 767 90 761 58 764 b 50 635 49 735 50 679 l 49 535 b 275 299 49 429 125 300 b 324 303 293 299 310 300 z m 481 54 b 549 361 522 108 549 171 l 549 635 b 571 767 549 678 549 733 b 474 763 538 764 506 763 b 385 767 442 763 413 764 b 406 657 401 739 406 697 l 406 611 b 297 426 406 542 400 426 b 213 481 256 425 228 450 b 257 365 222 424 243 385 b 340 314 279 335 308 315 b 460 418 385 313 431 360 b 404 321 451 378 436 346 b 399 217 404 300 404 253 b 347 64 390 164 376 108 b 236 -15 318 22 283 -6 b 304 -18 257 -18 281 -18 b 481 54 385 -18 447 11 z "},"Þ":{"ha":596,"x_min":0,"x_max":0,"o":"m 406 175 b 568 418 517 206 568 300 b 515 567 568 479 549 529 b 440 592 497 588 467 592 b 376 582 411 590 394 588 b 271 532 336 571 297 553 b 310 538 283 536 296 538 b 425 419 365 538 425 497 b 300 283 425 363 404 283 b 250 296 283 283 263 288 b 279 222 251 268 263 243 b 338 179 293 204 315 189 b 406 175 361 169 383 168 z m 343 164 b 261 225 308 175 281 197 b 238 307 246 249 235 276 b 246 335 238 318 238 329 b 271 336 254 340 261 340 b 210 376 265 367 238 376 b 133 283 161 376 133 328 b 236 175 133 225 182 190 b 343 164 268 165 308 158 z m 199 767 b 28 707 140 732 89 707 b 47 601 46 681 46 638 l 47 106 b 28 0 47 69 46 26 b 208 0 86 6 153 7 b 189 106 189 26 189 71 l 189 181 b 121 283 147 201 125 238 b 189 386 117 335 156 376 b 217 499 190 440 192 468 b 443 604 271 565 376 604 b 481 600 456 604 468 603 b 338 640 442 626 392 640 b 189 596 281 640 229 626 b 122 515 154 569 140 547 b 189 615 136 561 165 601 l 189 661 b 207 767 189 696 189 740 z "},"à":{"ha":439,"x_min":0,"x_max":0,"o":"m 367 556 l 371 561 l 179 740 b 111 775 146 768 129 776 b 65 722 81 772 64 750 b 113 671 68 703 83 686 z m 88 294 b 107 296 94 294 100 294 b 176 424 107 328 128 381 b 283 471 194 439 236 469 b 201 483 257 479 226 483 b 31 363 118 483 31 442 b 88 294 31 335 40 294 z m 365 -17 b 425 -3 383 -17 404 -12 b 397 121 399 47 397 83 l 400 246 b 379 385 400 296 396 346 b 331 446 371 406 353 429 b 224 440 311 461 265 465 b 153 379 196 425 178 411 b 179 385 161 383 171 385 b 264 247 247 385 260 339 b 317 158 294 217 313 178 b 264 229 313 168 292 200 b 153 276 233 260 193 276 b 21 165 85 276 21 217 b 72 104 24 136 49 115 b 179 107 110 86 150 89 b 154 139 165 110 154 122 b 199 185 154 169 172 185 b 293 93 251 185 285 136 b 283 29 297 65 292 46 b 307 3 290 19 299 10 b 365 -17 322 -10 343 -17 z m 181 -19 b 282 74 235 -17 282 21 b 222 154 282 121 253 154 l 213 153 b 215 142 214 149 215 144 b 131 79 215 106 167 81 b 14 142 83 79 35 100 l 14 128 b 168 -19 14 49 72 -19 z "},"á":{"ha":439,"x_min":0,"x_max":0,"o":"m 75 556 l 331 671 b 376 722 360 686 375 703 b 332 775 379 750 361 772 b 263 740 313 776 296 768 l 72 561 z m 88 294 b 107 296 94 294 100 294 b 176 424 107 328 128 381 b 283 471 194 439 236 469 b 201 483 257 479 226 483 b 31 363 118 483 31 442 b 88 294 31 335 40 294 z m 365 -17 b 425 -3 383 -17 404 -12 b 397 121 399 47 397 83 l 400 246 b 379 385 400 296 396 346 b 331 446 371 406 353 429 b 224 440 311 461 265 465 b 153 379 196 425 178 411 b 179 385 161 383 171 385 b 264 247 247 385 260 339 b 317 158 294 217 313 178 b 264 229 313 168 292 200 b 153 276 233 260 193 276 b 21 165 85 276 21 217 b 72 104 24 136 49 115 b 179 107 110 86 150 89 b 154 139 165 110 154 122 b 199 185 154 169 172 185 b 293 93 251 185 285 136 b 283 29 297 65 292 46 b 307 3 290 19 299 10 b 365 -17 322 -10 343 -17 z m 181 -19 b 282 74 235 -17 282 21 b 222 154 282 121 253 154 l 213 153 b 215 142 214 149 215 144 b 131 79 215 106 167 81 b 14 142 83 79 35 100 l 14 128 b 168 -19 14 49 72 -19 z "},"â":{"ha":439,"x_min":0,"x_max":0,"o":"m 399 578 l 257 774 l 185 774 l 43 578 l 117 578 l 221 697 l 326 578 z m 88 294 b 107 296 94 294 100 294 b 176 424 107 328 128 381 b 283 471 194 439 236 469 b 201 483 257 479 226 483 b 31 363 118 483 31 442 b 88 294 31 335 40 294 z m 365 -17 b 425 -3 383 -17 404 -12 b 397 121 399 47 397 83 l 400 246 b 379 385 400 296 396 346 b 331 446 371 406 353 429 b 224 440 311 461 265 465 b 153 379 196 425 178 411 b 179 385 161 383 171 385 b 264 247 247 385 260 339 b 317 158 294 217 313 178 b 264 229 313 168 292 200 b 153 276 233 260 193 276 b 21 165 85 276 21 217 b 72 104 24 136 49 115 b 179 107 110 86 150 89 b 154 139 165 110 154 122 b 199 185 154 169 172 185 b 293 93 251 185 285 136 b 283 29 297 65 292 46 b 307 3 290 19 299 10 b 365 -17 322 -10 343 -17 z m 181 -19 b 282 74 235 -17 282 21 b 222 154 282 121 253 154 l 213 153 b 215 142 214 149 215 144 b 131 79 215 106 167 81 b 14 142 83 79 35 100 l 14 128 b 168 -19 14 49 72 -19 z "},"ã":{"ha":439,"x_min":0,"x_max":0,"o":"m 268 578 b 403 707 346 578 386 643 l 367 707 b 307 668 354 681 333 668 b 224 688 281 668 253 675 b 140 707 193 700 167 707 b 14 578 75 707 31 644 l 50 578 b 107 619 63 606 81 619 b 190 599 133 619 161 613 b 268 578 219 585 246 578 z m 88 294 b 107 296 94 294 100 294 b 176 424 107 328 128 381 b 283 471 194 439 236 469 b 201 483 257 479 226 483 b 31 363 118 483 31 442 b 88 294 31 335 40 294 z m 365 -17 b 425 -3 383 -17 404 -12 b 397 121 399 47 397 83 l 400 246 b 379 385 400 296 396 346 b 331 446 371 406 353 429 b 224 440 311 461 265 465 b 153 379 196 425 178 411 b 179 385 161 383 171 385 b 264 247 247 385 260 339 b 317 158 294 217 313 178 b 264 229 313 168 292 200 b 153 276 233 260 193 276 b 21 165 85 276 21 217 b 72 104 24 136 49 115 b 179 107 110 86 150 89 b 154 139 165 110 154 122 b 199 185 154 169 172 185 b 293 93 251 185 285 136 b 283 29 297 65 292 46 b 307 3 290 19 299 10 b 365 -17 322 -10 343 -17 z m 181 -19 b 282 74 235 -17 282 21 b 222 154 282 121 253 154 l 213 153 b 215 142 214 149 215 144 b 131 79 215 106 167 81 b 14 142 83 79 35 100 l 14 128 b 168 -19 14 49 72 -19 z "},"ä":{"ha":439,"x_min":0,"x_max":0,"o":"m 125 719 b 65 660 92 719 65 693 b 125 600 65 626 92 600 b 186 660 158 600 186 626 b 125 719 186 693 158 719 z m 306 719 b 246 660 272 719 246 693 b 306 600 246 626 272 600 b 367 660 339 600 367 626 b 306 719 367 693 339 719 z m 88 294 b 107 296 94 294 100 294 b 176 424 107 328 128 381 b 283 471 194 439 236 469 b 201 483 257 479 226 483 b 31 363 118 483 31 442 b 88 294 31 335 40 294 z m 365 -17 b 425 -3 383 -17 404 -12 b 397 121 399 47 397 83 l 400 246 b 379 385 400 296 396 346 b 331 446 371 406 353 429 b 224 440 311 461 265 465 b 153 379 196 425 178 411 b 179 385 161 383 171 385 b 264 247 247 385 260 339 b 317 158 294 217 313 178 b 264 229 313 168 292 200 b 153 276 233 260 193 276 b 21 165 85 276 21 217 b 72 104 24 136 49 115 b 179 107 110 86 150 89 b 154 139 165 110 154 122 b 199 185 154 169 172 185 b 293 93 251 185 285 136 b 283 29 297 65 292 46 b 307 3 290 19 299 10 b 365 -17 322 -10 343 -17 z m 181 -19 b 282 74 235 -17 282 21 b 222 154 282 121 253 154 l 213 153 b 215 142 214 149 215 144 b 131 79 215 106 167 81 b 14 142 83 79 35 100 l 14 128 b 168 -19 14 49 72 -19 z "},"å":{"ha":439,"x_min":0,"x_max":0,"o":"m 218 604 b 150 672 181 604 150 635 b 218 740 150 708 181 740 b 286 672 256 740 286 708 b 218 604 286 635 256 604 z m 218 551 b 339 672 288 551 339 606 b 218 793 339 739 288 793 b 99 672 151 793 99 742 b 218 551 99 604 150 551 z m 88 294 b 107 296 94 294 100 294 b 176 424 107 328 128 381 b 283 471 194 439 236 469 b 201 483 257 479 226 483 b 31 363 118 483 31 442 b 88 294 31 335 40 294 z m 365 -17 b 425 -3 383 -17 404 -12 b 397 121 399 47 397 83 l 400 246 b 379 385 400 296 396 346 b 331 446 371 406 353 429 b 224 440 311 461 265 465 b 153 379 196 425 178 411 b 179 385 161 383 171 385 b 264 247 247 385 260 339 b 317 158 294 217 313 178 b 264 229 313 168 292 200 b 153 276 233 260 193 276 b 21 165 85 276 21 217 b 72 104 24 136 49 115 b 179 107 110 86 150 89 b 154 139 165 110 154 122 b 199 185 154 169 172 185 b 293 93 251 185 285 136 b 283 29 297 65 292 46 b 307 3 290 19 299 10 b 365 -17 322 -10 343 -17 z m 181 -19 b 282 74 235 -17 282 21 b 222 154 282 121 253 154 l 213 153 b 215 142 214 149 215 144 b 131 79 215 106 167 81 b 14 142 83 79 35 100 l 14 128 b 168 -19 14 49 72 -19 z "},"æ":{"ha":685,"x_min":0,"x_max":0,"o":"m 181 -19 b 282 74 235 -17 282 22 b 261 133 282 99 274 119 b 213 153 250 147 243 153 b 215 142 214 150 215 146 b 131 81 215 106 167 82 b 14 142 83 79 35 100 b 56 24 10 86 29 51 b 181 -19 82 -3 118 -22 z m 343 438 b 285 458 328 451 304 458 b 224 442 265 458 244 453 b 153 379 196 425 178 411 b 179 386 161 385 171 386 b 256 301 232 386 249 357 b 306 282 272 290 306 282 b 257 285 306 282 279 283 b 193 285 235 286 214 286 b 111 269 164 282 135 279 b 56 235 85 260 68 247 b 21 167 35 214 18 190 b 72 104 24 136 49 115 b 179 108 110 88 150 89 b 154 139 165 111 154 122 b 164 169 154 151 157 163 l 163 169 b 254 217 178 190 213 206 b 293 94 257 171 269 132 b 424 -11 315 57 371 6 b 482 -3 446 -18 464 -14 b 568 168 543 38 568 94 b 494 113 554 138 524 113 b 388 215 433 114 397 160 b 349 229 379 219 363 225 b 494 226 410 224 457 224 b 568 243 536 229 550 235 b 601 293 593 256 601 274 b 551 367 601 324 579 354 b 557 349 554 361 557 356 b 533 304 557 329 547 315 b 481 281 522 296 506 286 b 392 276 454 276 424 275 b 571 467 407 376 479 443 b 489 483 538 479 519 483 b 343 438 450 483 389 471 z m 88 294 b 107 296 94 294 100 294 b 176 424 107 329 128 381 b 283 471 194 439 236 469 b 201 483 257 481 226 483 b 31 364 118 485 31 443 b 88 294 31 336 40 294 z m 482 -19 b 671 117 599 -19 671 53 b 643 194 671 149 663 176 b 576 213 631 206 615 215 b 582 161 581 199 582 178 b 482 -19 582 94 549 24 z m 606 268 b 644 353 631 290 644 324 b 576 456 644 417 600 456 b 443 372 533 456 472 410 b 501 389 458 383 481 389 b 611 296 560 389 611 350 b 606 268 611 286 608 276 z "},"ç":{"ha":443,"x_min":0,"x_max":0,"o":"m 231 -31 b 194 -25 218 -31 207 -29 l 178 -87 b 201 -86 186 -86 194 -86 b 275 -99 231 -86 256 -90 b 304 -140 293 -107 303 -121 b 219 -200 306 -181 276 -200 b 117 -165 190 -200 156 -189 l 117 -229 b 244 -251 153 -244 196 -251 b 354 -221 292 -251 328 -242 b 393 -140 381 -200 393 -174 b 360 -61 393 -106 382 -79 b 269 -36 338 -43 307 -35 b 228 -39 257 -36 243 -37 z m 257 388 b 338 297 319 389 339 321 b 406 375 410 282 411 346 b 383 425 403 394 394 411 b 346 453 374 438 360 450 b 272 431 326 456 293 442 b 206 372 256 421 233 407 b 257 388 222 382 239 388 z m 340 176 b 321 72 343 140 336 106 b 240 -19 304 35 275 3 b 276 -17 253 -19 265 -18 b 429 114 365 -6 426 58 b 335 214 431 172 403 222 b 340 176 339 201 340 189 z m 242 485 b 90 428 186 485 131 461 b 14 236 38 382 14 318 b 53 96 14 183 25 138 b 207 -15 93 36 144 -4 b 243 -3 221 -18 232 -10 b 294 50 263 11 281 29 b 329 169 318 85 329 126 b 256 114 315 138 286 113 b 147 236 186 115 149 171 b 188 368 149 289 163 332 b 247 429 204 393 224 413 b 329 467 269 446 297 458 b 297 478 319 471 307 475 b 242 485 281 482 264 483 z "},"è":{"ha":443,"x_min":0,"x_max":0,"o":"m 381 556 l 385 561 l 193 740 b 125 775 160 768 143 776 b 79 722 94 772 78 750 b 126 671 82 703 97 686 z m 249 483 b 225 482 242 483 233 483 b 90 426 182 478 126 458 b 14 236 38 382 14 317 b 53 94 14 182 26 138 b 207 -15 88 38 144 -4 b 243 -3 221 -19 232 -10 b 294 49 263 11 281 29 b 329 168 318 85 329 125 b 256 113 315 138 285 113 b 149 215 194 114 157 160 b 83 236 129 224 83 236 b 147 229 83 236 140 231 b 224 225 172 226 199 225 b 329 243 261 225 299 229 b 361 293 354 254 361 274 b 311 367 361 324 340 354 b 317 349 315 361 317 356 b 179 274 317 279 201 274 l 151 275 b 188 368 157 311 169 342 b 247 429 204 392 224 413 b 331 467 269 446 299 458 b 297 478 319 471 307 475 b 249 483 281 482 265 483 z m 272 429 b 206 371 256 421 232 404 b 239 383 217 378 226 382 b 290 383 256 388 274 388 b 374 294 340 375 374 340 b 368 267 374 285 371 275 b 407 351 393 289 407 322 b 397 400 407 369 404 386 b 376 432 392 413 385 422 b 346 453 368 442 357 450 b 315 449 333 454 325 451 b 272 429 300 444 283 436 z m 340 176 b 321 72 343 140 336 104 b 240 -19 304 35 275 3 b 276 -18 253 -19 265 -19 b 429 113 365 -6 426 58 b 335 213 431 172 403 222 b 340 176 339 200 340 189 z "},"é":{"ha":443,"x_min":0,"x_max":0,"o":"m 75 556 l 331 671 b 376 722 360 686 375 703 b 332 775 379 750 361 772 b 263 740 313 776 296 768 l 72 561 z m 214 -17 b 243 -3 225 -17 233 -8 b 329 168 299 38 329 94 b 256 113 315 138 285 113 b 149 215 194 114 157 160 b 83 236 129 224 83 236 b 224 225 83 236 169 225 b 329 243 261 225 299 229 b 361 293 354 254 361 274 b 311 367 361 324 340 354 b 317 349 315 361 317 356 b 179 274 317 279 201 274 l 151 275 b 331 467 167 375 239 443 b 249 483 297 479 281 483 b 90 426 207 483 138 468 b 14 236 38 382 14 317 b 53 94 14 182 26 138 b 214 -17 81 50 156 -17 z m 368 267 b 407 351 393 289 407 322 b 339 453 407 415 364 453 b 206 371 296 453 235 408 b 265 386 222 381 244 386 b 374 294 324 386 374 349 b 368 267 374 285 371 275 z m 240 -19 b 429 117 357 -19 429 51 b 351 214 429 169 406 214 l 335 213 b 340 161 340 197 340 178 b 240 -19 340 94 307 24 z "},"ê":{"ha":443,"x_min":0,"x_max":0,"o":"m 399 578 l 257 774 l 185 774 l 43 578 l 117 578 l 221 697 l 326 578 z m 249 483 b 225 482 242 483 233 483 b 90 426 182 478 126 458 b 14 236 38 382 14 317 b 53 94 14 182 26 138 b 207 -15 88 38 144 -4 b 243 -3 221 -19 232 -10 b 294 49 263 11 281 29 b 329 168 318 85 329 125 b 256 113 315 138 285 113 b 149 215 194 114 157 160 b 83 236 129 224 83 236 b 147 229 83 236 140 231 b 224 225 172 226 199 225 b 329 243 261 225 299 229 b 361 293 354 254 361 274 b 311 367 361 324 340 354 b 317 349 315 361 317 356 b 179 274 317 279 201 274 l 151 275 b 188 368 157 311 169 342 b 247 429 204 392 224 413 b 331 467 269 446 299 458 b 297 478 319 471 307 475 b 249 483 281 482 265 483 z m 272 429 b 206 371 256 421 232 404 b 239 383 217 378 226 382 b 290 383 256 388 274 388 b 374 294 340 375 374 340 b 368 267 374 285 371 275 b 407 351 393 289 407 322 b 397 400 407 369 404 386 b 376 432 392 413 385 422 b 346 453 368 442 357 450 b 315 449 333 454 325 451 b 272 429 300 444 283 436 z m 340 176 b 321 72 343 140 336 104 b 240 -19 304 35 275 3 b 276 -18 253 -19 265 -19 b 429 113 365 -6 426 58 b 335 213 431 172 403 222 b 340 176 339 200 340 189 z "},"ë":{"ha":443,"x_min":0,"x_max":0,"o":"m 139 719 b 79 660 106 719 79 693 b 139 600 79 626 106 600 b 200 660 172 600 200 626 b 139 719 200 693 172 719 z m 319 719 b 260 660 286 719 260 693 b 319 600 260 626 286 600 b 381 660 353 600 381 626 b 319 719 381 693 353 719 z m 249 483 b 225 482 242 483 233 483 b 90 426 182 478 126 458 b 14 236 38 382 14 317 b 53 94 14 182 26 138 b 207 -15 88 38 144 -4 b 243 -3 221 -19 232 -10 b 294 49 263 11 281 29 b 329 168 318 85 329 125 b 256 113 315 138 285 113 b 149 215 194 114 157 160 b 83 236 129 224 83 236 b 147 229 83 236 140 231 b 224 225 172 226 199 225 b 329 243 261 225 299 229 b 361 293 354 254 361 274 b 311 367 361 324 340 354 b 317 349 315 361 317 356 b 179 274 317 279 201 274 l 151 275 b 188 368 157 311 169 342 b 247 429 204 392 224 413 b 331 467 269 446 299 458 b 297 478 319 471 307 475 b 249 483 281 482 265 483 z m 272 429 b 206 371 256 421 232 404 b 239 383 217 378 226 382 b 290 383 256 388 274 388 b 374 294 340 375 374 340 b 368 267 374 285 371 275 b 407 351 393 289 407 322 b 397 400 407 369 404 386 b 376 432 392 413 385 422 b 346 453 368 442 357 450 b 315 449 333 454 325 451 b 272 429 300 444 283 436 z m 340 176 b 321 72 343 140 336 104 b 240 -19 304 35 275 3 b 276 -18 253 -19 265 -19 b 429 113 365 -6 426 58 b 335 213 431 172 403 222 b 340 176 339 200 340 189 z "},"ì":{"ha":211,"x_min":0,"x_max":0,"o":"m 256 556 l 258 561 l 68 740 b 0 775 35 768 18 776 b -46 722 -31 772 -49 750 b 1 671 -44 703 -28 686 z m 122 39 b 60 110 97 58 75 82 b 40 183 47 133 42 158 l 40 114 b 21 0 40 75 40 28 b 107 6 50 3 79 6 b 192 0 136 6 164 4 b 122 39 167 11 143 24 z m 182 485 b 21 467 131 467 74 467 b 40 353 40 439 40 389 l 40 246 b 50 178 40 222 44 199 b 110 68 60 136 81 99 b 183 18 131 47 157 31 b 172 114 174 47 174 83 l 172 371 b 192 485 172 410 172 457 z "},"í":{"ha":211,"x_min":0,"x_max":0,"o":"m -39 557 l 215 672 b 263 724 246 688 261 704 b 217 776 265 751 247 774 b 149 742 199 778 182 769 l -42 563 z m 122 39 b 60 110 97 58 75 82 b 40 183 47 133 42 158 l 40 114 b 21 0 40 75 40 28 b 107 6 50 3 79 6 b 192 0 136 6 164 4 b 122 39 167 11 143 24 z m 182 485 b 21 467 131 467 74 467 b 40 353 40 439 40 389 l 40 246 b 50 178 40 222 44 199 b 110 68 60 136 81 99 b 183 18 131 47 157 31 b 172 114 174 47 174 83 l 172 371 b 192 485 172 410 172 457 z "},"î":{"ha":213,"x_min":0,"x_max":0,"o":"m 288 578 l 146 774 l 74 774 l -68 578 l 6 578 l 110 697 l 215 578 z m 122 39 b 60 110 97 58 75 82 b 40 183 47 133 42 158 l 40 114 b 21 0 40 75 40 28 b 107 6 50 3 79 6 b 192 0 136 6 164 4 b 122 39 167 11 143 24 z m 182 485 b 21 467 131 467 74 467 b 40 353 40 439 40 389 l 40 246 b 50 178 40 222 44 199 b 110 68 60 136 81 99 b 183 18 131 47 157 31 b 172 114 174 47 174 83 l 172 371 b 192 485 172 410 172 457 z "},"ï":{"ha":213,"x_min":0,"x_max":0,"o":"m 14 719 b -46 660 -19 719 -46 693 b 14 600 -46 626 -19 600 b 75 660 47 600 75 626 b 14 719 75 693 47 719 z m 194 719 b 135 660 161 719 135 693 b 194 600 135 626 161 600 b 256 660 228 600 256 626 b 194 719 256 693 228 719 z m 122 39 b 60 110 97 58 75 82 b 40 183 47 133 42 158 l 40 114 b 21 0 40 75 40 28 b 107 6 50 3 79 6 b 192 0 136 6 164 4 b 122 39 167 11 143 24 z m 182 485 b 21 467 131 467 74 467 b 40 353 40 439 40 389 l 40 246 b 50 178 40 222 44 199 b 110 68 60 136 81 99 b 183 18 131 47 157 31 b 172 114 174 47 174 83 l 172 371 b 192 485 172 410 172 457 z "},"ð":{"ha":561,"x_min":0,"x_max":0,"o":"m 288 -19 b 224 49 263 0 240 24 b 167 190 194 90 176 140 b 158 271 163 217 160 243 b 265 417 154 347 194 413 b 344 388 296 418 324 407 b 297 458 332 413 317 438 b 261 494 286 472 274 483 b 225 508 246 506 242 510 b 14 250 83 496 11 396 b 210 -18 17 117 81 4 b 288 -19 239 -21 261 -22 z m 429 631 b 329 590 404 622 358 603 b 397 483 361 556 385 519 b 418 368 415 432 417 400 b 361 479 414 394 389 451 b 261 510 336 496 303 508 b 318 453 282 493 301 474 b 365 368 339 426 354 399 b 389 283 376 340 388 310 b 281 136 393 206 344 140 b 178 199 239 135 200 160 b 221 76 185 156 199 114 b 304 -18 242 39 271 7 b 546 369 515 10 557 197 b 429 631 542 450 499 550 z m 65 760 b 226 676 128 735 182 707 b 282 685 253 681 282 685 b 240 668 282 685 264 676 b 108 626 175 642 132 632 b 154 517 131 586 143 557 b 301 592 176 533 221 558 b 369 621 325 603 347 613 b 426 643 389 629 408 636 b 513 665 468 657 496 663 b 468 775 490 707 478 736 b 340 710 449 763 408 739 b 199 767 297 738 250 758 z "},"ñ":{"ha":492,"x_min":0,"x_max":0,"o":"m 310 578 b 444 707 388 578 428 643 l 408 707 b 349 668 396 681 375 668 b 265 688 322 668 294 675 b 182 707 235 700 208 707 b 56 578 117 707 72 644 l 92 578 b 149 619 104 606 122 619 b 232 599 175 619 203 613 b 310 578 261 585 288 578 z m 153 371 b 124 290 140 344 129 313 b 168 421 126 332 143 389 b 185 485 169 444 174 468 l 175 485 b 14 465 124 467 67 465 b 33 351 32 439 33 389 l 33 114 b 14 0 33 75 32 28 b 101 6 43 3 72 6 b 185 0 129 6 157 3 b 165 114 165 29 165 76 l 165 194 b 176 276 165 224 169 250 b 363 429 208 392 300 429 b 432 407 394 429 417 418 b 407 443 425 421 417 433 b 303 488 382 471 347 488 b 239 471 279 488 256 481 b 153 371 201 451 174 414 z m 400 4 b 478 0 426 4 453 3 b 460 113 460 28 460 75 l 460 271 b 454 342 460 296 457 319 b 428 393 450 367 442 381 b 365 417 414 406 394 415 b 271 390 347 417 314 415 b 326 244 321 383 326 296 l 326 114 b 308 0 326 75 326 28 b 400 4 340 4 369 4 z "},"ò":{"ha":475,"x_min":0,"x_max":0,"o":"m 394 556 l 399 561 l 207 740 b 139 775 174 768 157 776 b 93 722 108 772 92 750 b 140 671 96 703 111 686 z m 54 383 b 39 356 49 374 43 365 b 14 232 24 321 14 279 b 144 0 14 128 61 38 b 174 1 157 -6 163 -3 b 260 64 208 13 238 36 b 303 147 281 89 293 117 b 238 114 288 126 267 114 b 154 193 190 114 165 146 b 78 249 125 203 97 222 b 54 383 49 288 42 336 z m 238 485 b 126 454 197 485 158 475 b 69 383 99 436 79 413 b 88 257 54 340 61 293 b 128 219 97 242 114 226 b 189 206 144 210 165 204 b 258 246 222 206 249 225 b 197 346 276 288 261 349 b 199 308 208 332 207 317 b 175 310 190 299 179 303 b 186 364 165 328 176 353 b 238 388 200 379 219 388 b 326 250 288 388 326 326 b 325 194 326 232 326 213 b 269 56 318 146 303 96 b 175 -11 244 24 211 1 b 238 -19 194 -17 215 -19 b 461 232 379 -19 461 93 b 238 485 461 388 361 485 z "},"ó":{"ha":475,"x_min":0,"x_max":0,"o":"m 89 557 l 344 672 b 390 724 374 688 389 704 b 346 776 393 751 375 774 b 276 742 326 778 310 769 l 86 563 z m 54 383 b 39 356 49 374 43 365 b 14 232 24 321 14 279 b 144 0 14 128 61 38 b 174 1 157 -6 163 -3 b 260 64 208 13 238 36 b 303 147 281 89 293 117 b 238 114 288 126 267 114 b 154 193 190 114 165 146 b 78 249 125 203 97 222 b 54 383 49 288 42 336 z m 238 485 b 126 454 197 485 158 475 b 69 383 99 436 79 413 b 88 257 54 340 61 293 b 128 219 97 242 114 226 b 189 206 144 210 165 204 b 258 246 222 206 249 225 b 197 346 276 288 261 349 b 199 308 208 332 207 317 b 175 310 190 299 179 303 b 186 364 165 328 176 353 b 238 388 200 379 219 388 b 326 250 288 388 326 326 b 325 194 326 232 326 213 b 269 56 318 146 303 96 b 175 -11 244 24 211 1 b 238 -19 194 -17 215 -19 b 461 232 379 -19 461 93 b 238 485 461 388 361 485 z "},"ô":{"ha":475,"x_min":0,"x_max":0,"o":"m 419 578 l 278 774 l 206 774 l 64 578 l 138 578 l 242 697 l 347 578 z m 54 383 b 39 356 49 374 43 365 b 14 232 24 321 14 279 b 144 0 14 128 61 38 b 174 1 157 -6 163 -3 b 260 64 208 13 238 36 b 303 147 281 89 293 117 b 238 114 288 126 267 114 b 154 193 190 114 165 146 b 78 249 125 203 97 222 b 54 383 49 288 42 336 z m 238 485 b 126 454 197 485 158 475 b 69 383 99 436 79 413 b 88 257 54 340 61 293 b 128 219 97 242 114 226 b 189 206 144 210 165 204 b 258 246 222 206 249 225 b 197 346 276 288 261 349 b 199 308 208 332 207 317 b 175 310 190 299 179 303 b 186 364 165 328 176 353 b 238 388 200 379 219 388 b 326 250 288 388 326 326 b 325 194 326 232 326 213 b 269 56 318 146 303 96 b 175 -11 244 24 211 1 b 238 -19 194 -17 215 -19 b 461 232 379 -19 461 93 b 238 485 461 388 361 485 z "},"õ":{"ha":475,"x_min":0,"x_max":0,"o":"m 296 578 b 431 707 374 578 414 643 l 394 707 b 335 668 382 681 361 668 b 251 688 308 668 281 675 b 168 707 221 700 194 707 b 42 578 103 707 58 644 l 78 578 b 135 619 90 606 108 619 b 218 599 161 619 189 613 b 296 578 247 585 274 578 z m 54 383 b 39 356 49 374 43 365 b 14 232 24 321 14 279 b 144 0 14 128 61 38 b 174 1 157 -6 163 -3 b 260 64 208 13 238 36 b 303 147 281 89 293 117 b 238 114 288 126 267 114 b 154 193 190 114 165 146 b 78 249 125 203 97 222 b 54 383 49 288 42 336 z m 238 485 b 126 454 197 485 158 475 b 69 383 99 436 79 413 b 88 257 54 340 61 293 b 128 219 97 242 114 226 b 189 206 144 210 165 204 b 258 246 222 206 249 225 b 197 346 276 288 261 349 b 199 308 208 332 207 317 b 175 310 190 299 179 303 b 186 364 165 328 176 353 b 238 388 200 379 219 388 b 326 250 288 388 326 326 b 325 194 326 232 326 213 b 269 56 318 146 303 96 b 175 -11 244 24 211 1 b 238 -19 194 -17 215 -19 b 461 232 379 -19 461 93 b 238 485 461 388 361 485 z "},"ö":{"ha":475,"x_min":0,"x_max":0,"o":"m 150 719 b 90 660 117 719 90 693 b 150 600 90 626 117 600 b 211 660 183 600 211 626 b 150 719 211 693 183 719 z m 331 719 b 271 660 297 719 271 693 b 331 600 271 626 297 600 b 392 660 364 600 392 626 b 331 719 392 693 364 719 z m 54 383 b 39 356 49 374 43 365 b 14 232 24 321 14 279 b 144 0 14 128 61 38 b 174 1 157 -6 163 -3 b 260 64 208 13 238 36 b 303 147 281 89 293 117 b 238 114 288 126 267 114 b 154 193 190 114 165 146 b 78 249 125 203 97 222 b 54 383 49 288 42 336 z m 238 485 b 126 454 197 485 158 475 b 69 383 99 436 79 413 b 88 257 54 340 61 293 b 128 219 97 242 114 226 b 189 206 144 210 165 204 b 258 246 222 206 249 225 b 197 346 276 288 261 349 b 199 308 208 332 207 317 b 175 310 190 299 179 303 b 186 364 165 328 176 353 b 238 388 200 379 219 388 b 326 250 288 388 326 326 b 325 194 326 232 326 213 b 269 56 318 146 303 96 b 175 -11 244 24 211 1 b 238 -19 194 -17 215 -19 b 461 232 379 -19 461 93 b 238 485 461 388 361 485 z "},"÷":{"ha":382,"x_min":0,"x_max":0,"o":"m 192 315 b 99 222 140 315 99 274 b 192 131 99 172 140 131 b 283 222 243 131 283 172 b 192 315 283 274 243 315 z m 192 669 b 99 576 140 669 99 628 b 192 485 99 526 140 485 b 283 576 243 485 283 526 b 192 669 283 628 243 669 z m 42 464 b 42 335 46 421 44 374 b 192 349 64 342 107 349 b 340 335 276 349 319 342 b 340 464 336 379 339 426 b 192 451 319 458 276 451 b 42 464 107 451 64 458 z "},"ø":{"ha":475,"x_min":0,"x_max":0,"o":"m 374 438 b 321 303 353 392 336 343 b 326 251 325 288 326 269 b 307 154 326 213 319 181 b 249 115 294 131 275 118 b 229 58 239 88 232 71 b 204 -17 224 44 204 -17 b 238 -18 214 -18 226 -18 b 403 56 308 -18 364 6 b 461 233 442 104 461 164 b 396 417 461 311 439 372 b 374 438 389 425 381 431 z m 138 93 b 72 -19 121 53 108 7 b 190 -18 110 -14 150 -14 b 217 65 199 10 208 38 b 356 426 264 194 307 306 b 400 485 364 450 382 472 b 278 485 363 479 319 481 b 246 372 279 463 260 408 b 197 247 229 331 214 289 b 138 93 176 193 158 144 z m 267 482 b 238 485 257 483 247 485 b 79 417 175 485 122 463 b 14 233 36 372 14 311 b 72 56 14 164 33 104 b 99 28 81 44 89 36 b 126 99 108 56 118 79 b 149 154 135 119 142 138 b 158 182 151 164 154 172 b 149 251 151 201 149 225 b 175 349 149 289 157 321 b 238 389 193 375 214 389 b 267 482 250 419 260 451 z "},"ù":{"ha":483,"x_min":0,"x_max":0,"o":"m 394 556 l 399 561 l 207 740 b 139 775 174 768 157 776 b 93 722 108 772 92 750 b 140 671 96 703 111 686 z m 33 351 l 33 258 b 39 226 33 247 36 236 b 92 153 47 196 67 171 b 144 126 108 140 126 132 b 192 122 160 122 176 121 b 165 210 165 138 165 181 l 165 465 b 92 461 139 463 115 461 b 14 465 68 461 43 463 b 33 351 32 436 33 390 z m 310 351 l 310 231 b 254 125 310 179 289 143 b 179 108 226 111 201 108 b 89 139 147 110 115 121 b 35 203 65 156 47 178 b 42 125 35 163 39 142 b 167 -19 56 33 93 -19 b 310 82 233 -19 275 32 b 350 182 321 99 340 131 b 314 61 347 122 335 96 b 354 4 322 32 336 17 b 411 -11 369 -6 389 -11 b 469 0 429 -11 449 -8 b 442 114 451 38 442 57 l 442 465 b 368 461 415 463 392 461 b 290 465 344 461 319 463 b 310 351 310 438 310 390 z "},"ú":{"ha":483,"x_min":0,"x_max":0,"o":"m 89 556 l 344 671 b 390 722 374 686 389 703 b 346 775 393 750 375 772 b 276 740 326 776 310 768 l 86 561 z m 33 351 l 33 258 b 39 226 33 247 36 236 b 92 153 47 196 67 171 b 144 126 108 140 126 132 b 192 122 160 122 176 121 b 165 210 165 138 165 181 l 165 465 b 92 461 139 463 115 461 b 14 465 68 461 43 463 b 33 351 32 436 33 390 z m 310 351 l 310 231 b 254 125 310 179 289 143 b 179 108 226 111 201 108 b 89 139 147 110 115 121 b 35 203 65 156 47 178 b 42 125 35 163 39 142 b 167 -19 56 33 93 -19 b 310 82 233 -19 275 32 b 350 182 321 99 340 131 b 314 61 347 122 335 96 b 354 4 322 32 336 17 b 411 -11 369 -6 389 -11 b 469 0 429 -11 449 -8 b 442 114 451 38 442 57 l 442 465 b 368 461 415 463 392 461 b 290 465 344 461 319 463 b 310 351 310 438 310 390 z "},"û":{"ha":483,"x_min":0,"x_max":0,"o":"m 417 578 l 275 774 l 203 774 l 61 578 l 135 578 l 239 697 l 344 578 z m 33 351 l 33 258 b 39 226 33 247 36 236 b 92 153 47 196 67 171 b 144 126 108 140 126 132 b 192 122 160 122 176 121 b 165 210 165 138 165 181 l 165 465 b 92 461 139 463 115 461 b 14 465 68 461 43 463 b 33 351 32 436 33 390 z m 310 351 l 310 231 b 254 125 310 179 289 143 b 179 108 226 111 201 108 b 89 139 147 110 115 121 b 35 203 65 156 47 178 b 42 125 35 163 39 142 b 167 -19 56 33 93 -19 b 310 82 233 -19 275 32 b 350 182 321 99 340 131 b 314 61 347 122 335 96 b 354 4 322 32 336 17 b 411 -11 369 -6 389 -11 b 469 0 429 -11 449 -8 b 442 114 451 38 442 57 l 442 465 b 368 461 415 463 392 461 b 290 465 344 461 319 463 b 310 351 310 438 310 390 z "},"ü":{"ha":483,"x_min":0,"x_max":0,"o":"m 139 719 b 79 660 106 719 79 693 b 139 600 79 626 106 600 b 200 660 172 600 200 626 b 139 719 200 693 172 719 z m 319 719 b 260 660 286 719 260 693 b 319 600 260 626 286 600 b 381 660 353 600 381 626 b 319 719 381 693 353 719 z m 33 351 l 33 258 b 39 226 33 247 36 236 b 92 153 47 196 67 171 b 144 126 108 140 126 132 b 192 122 160 122 176 121 b 165 210 165 138 165 181 l 165 465 b 92 461 139 463 115 461 b 14 465 68 461 43 463 b 33 351 32 436 33 390 z m 310 351 l 310 231 b 254 125 310 179 289 143 b 179 108 226 111 201 108 b 89 139 147 110 115 121 b 35 203 65 156 47 178 b 42 125 35 163 39 142 b 167 -19 56 33 93 -19 b 310 82 233 -19 275 32 b 350 182 321 99 340 131 b 314 61 347 122 335 96 b 354 4 322 32 336 17 b 411 -11 369 -6 389 -11 b 469 0 429 -11 449 -8 b 442 114 451 38 442 57 l 442 465 b 368 461 415 463 392 461 b 290 465 344 461 319 463 b 310 351 310 438 310 390 z "},"ý":{"ha":478,"x_min":0,"x_max":0,"o":"m 103 556 l 358 671 b 404 722 388 686 403 703 b 360 775 407 750 389 772 b 290 740 340 776 324 768 l 100 561 z m 165 217 l 165 351 b 185 465 165 389 165 438 b 89 461 153 463 121 461 b 14 465 63 461 38 463 b 33 351 33 431 33 388 l 33 251 b 182 128 35 161 136 129 b 165 217 167 147 165 183 z m 369 -197 b 444 42 415 -150 444 -72 l 444 351 b 464 465 444 389 444 438 b 381 460 438 461 408 460 b 293 465 350 460 319 463 b 313 351 311 438 313 390 l 313 188 b 201 113 293 131 246 113 b 33 200 132 113 71 128 b 197 -19 39 47 97 -19 b 311 61 250 -19 286 21 b 371 185 342 106 358 149 b 310 21 363 140 349 79 b 303 -92 308 -25 307 -61 b 250 -199 296 -137 282 -169 b 157 -236 225 -221 192 -235 b 232 -250 179 -244 204 -250 b 369 -197 285 -250 332 -233 z m 154 -224 b 247 -183 192 -224 224 -208 b 293 -78 275 -156 292 -118 b 222 -126 292 -97 251 -126 b 192 -112 206 -126 192 -122 b 206 -99 192 -104 199 -99 b 214 -101 208 -99 211 -100 b 144 -39 214 -67 190 -39 b 65 -124 100 -39 65 -74 b 154 -224 65 -161 94 -224 z "},"þ":{"ha":471,"x_min":0,"x_max":0,"o":"m 286 125 b 263 119 279 121 271 119 b 222 168 238 119 222 143 b 231 199 222 179 225 190 b 158 167 203 207 176 197 b 144 113 150 151 144 126 b 168 74 144 93 147 76 b 228 81 190 71 210 74 b 286 125 253 90 274 107 z m 276 -19 b 457 243 393 -19 457 101 b 442 347 457 281 453 315 b 338 407 425 394 383 407 b 257 390 315 407 294 406 b 306 360 281 390 297 372 b 332 257 324 332 332 293 b 185 60 332 101 246 60 b 153 64 174 60 163 61 b 276 -19 175 4 232 -19 z m 175 774 b 14 632 138 710 83 663 b 33 518 26 599 33 560 l 33 -86 b 14 -200 33 -125 32 -172 b 101 -194 43 -197 72 -194 b 185 -200 129 -194 157 -197 b 165 -86 165 -171 165 -124 l 165 18 b 132 111 140 47 132 76 b 165 200 132 160 157 190 l 165 243 b 331 419 165 328 210 419 b 421 396 365 419 399 413 b 275 486 390 453 342 486 b 129 292 185 486 140 374 b 165 428 129 336 136 392 l 165 660 b 185 774 167 711 172 749 z "},"ÿ":{"ha":478,"x_min":0,"x_max":0,"o":"m 153 719 b 93 660 119 719 93 693 b 153 600 93 626 119 600 b 214 660 186 600 214 626 b 153 719 214 693 186 719 z m 333 719 b 274 660 300 719 274 693 b 333 600 274 626 300 600 b 394 660 367 600 394 626 b 333 719 394 693 367 719 z m 165 217 l 165 351 b 185 465 165 389 165 438 b 89 461 153 463 121 461 b 14 465 63 461 38 463 b 33 351 33 431 33 388 l 33 251 b 182 128 35 161 136 129 b 165 217 167 147 165 183 z m 369 -197 b 444 42 415 -150 444 -72 l 444 351 b 464 465 444 389 444 438 b 381 460 438 461 408 460 b 293 465 350 460 319 463 b 313 351 311 438 313 390 l 313 188 b 201 113 293 131 246 113 b 33 200 132 113 71 128 b 197 -19 39 47 97 -19 b 311 61 250 -19 286 21 b 371 185 342 106 358 149 b 310 21 363 140 349 79 b 303 -92 308 -25 307 -61 b 250 -199 296 -137 282 -169 b 157 -236 225 -221 192 -235 b 232 -250 179 -244 204 -250 b 369 -197 285 -250 332 -233 z m 154 -224 b 247 -183 192 -224 224 -208 b 293 -78 275 -156 292 -118 b 222 -126 292 -97 251 -126 b 192 -112 206 -126 192 -122 b 206 -99 192 -104 199 -99 b 214 -101 208 -99 211 -100 b 144 -39 214 -67 190 -39 b 65 -124 100 -39 65 -74 b 154 -224 65 -161 94 -224 z "},"ı":{"ha":199,"x_min":0,"x_max":0,"o":"m 115 39 b 53 110 90 58 68 82 b 33 183 40 133 35 158 l 33 114 b 14 0 33 75 33 28 b 100 6 43 3 72 6 b 185 0 129 6 157 4 b 115 39 160 11 136 24 z m 175 485 b 14 467 124 467 67 467 b 33 353 33 439 33 389 l 33 246 b 43 178 33 222 38 199 b 103 68 53 136 74 99 b 176 18 124 47 150 31 b 165 114 167 47 167 83 l 165 371 b 185 485 165 410 165 457 z "},"̀":{"ha":388,"x_min":0,"x_max":0,"o":"m 343 728 l 346 733 l 156 913 b 88 947 122 940 106 949 b 42 894 57 944 39 922 b 89 843 43 875 60 858 z "},"́":{"ha":388,"x_min":0,"x_max":0,"o":"m 44 728 l 299 843 b 346 894 329 858 344 875 b 300 947 349 922 331 944 b 232 913 282 949 265 940 l 42 733 z "},"̂":{"ha":439,"x_min":0,"x_max":0,"o":"m 397 751 l 256 947 l 183 947 l 42 751 l 115 751 l 219 871 l 325 751 z "},"̃":{"ha":472,"x_min":0,"x_max":0,"o":"m 296 792 b 431 921 374 792 414 857 l 394 921 b 335 882 382 894 361 882 b 251 901 308 882 281 889 b 168 921 221 914 194 921 b 42 792 103 921 58 858 l 78 792 b 135 833 90 819 108 833 b 218 813 161 833 189 826 b 296 792 247 799 274 792 z "},"̄":{"ha":433,"x_min":0,"x_max":0,"o":"m 392 810 l 392 896 l 42 896 l 42 810 z "},"̇":{"ha":204,"x_min":0,"x_max":0,"o":"m 101 918 b 42 858 68 918 42 892 b 101 799 42 825 68 799 b 163 858 135 799 163 825 b 101 918 163 892 135 918 z "},"̈":{"ha":385,"x_min":0,"x_max":0,"o":"m 101 918 b 42 858 68 918 42 892 b 101 799 42 825 68 799 b 163 858 135 799 163 825 b 101 918 163 892 135 918 z m 282 918 b 222 858 249 918 222 892 b 282 799 222 825 249 799 b 343 858 315 799 343 825 b 282 918 343 892 315 918 z "},"̊":{"ha":324,"x_min":0,"x_max":0,"o":"m 161 771 b 93 839 124 771 93 801 b 161 907 93 875 124 907 b 229 839 199 907 229 875 b 161 771 229 801 199 771 z m 161 718 b 282 839 231 718 282 772 b 161 960 282 906 231 960 b 42 839 94 960 42 908 b 161 718 42 771 93 718 z "},"̌":{"ha":439,"x_min":0,"x_max":0,"o":"m 397 947 l 325 947 l 219 828 l 115 947 l 42 947 l 183 751 l 256 751 z "},"̧":{"ha":360,"x_min":0,"x_max":0,"o":"m 169 -251 b 318 -140 263 -251 318 -208 b 194 -35 318 -72 271 -35 b 153 -39 182 -36 167 -36 l 178 32 l 135 32 l 103 -87 b 126 -86 111 -86 118 -86 b 228 -140 186 -86 228 -101 b 144 -200 228 -182 201 -200 b 42 -165 114 -200 81 -189 l 42 -229 b 169 -251 78 -244 121 -251 z "},"–":{"ha":649,"x_min":0,"x_max":0,"o":"m 42 465 b 42 336 50 422 46 375 b 325 350 82 343 164 350 b 607 336 485 350 567 343 b 607 465 599 381 603 428 b 325 453 567 460 485 453 b 42 465 164 453 82 460 z "},"—":{"ha":1001,"x_min":0,"x_max":0,"o":"m 42 465 b 42 336 57 422 50 375 b 501 350 108 343 240 350 b 960 336 761 350 894 343 b 960 465 946 381 953 428 b 501 453 894 460 761 453 b 42 465 240 453 108 460 z "},"‘":{"ha":269,"x_min":0,"x_max":0,"o":"m 143 492 b 228 592 194 496 232 542 b 140 676 224 639 186 674 b 224 786 147 726 169 767 b 43 576 107 828 29 681 b 143 492 50 525 93 488 z "},"’":{"ha":269,"x_min":0,"x_max":0,"o":"m 126 793 b 42 693 75 789 38 743 b 129 608 46 646 85 611 b 46 499 122 558 100 518 b 226 708 163 457 240 604 b 126 793 219 760 176 797 z "},"‚":{"ha":269,"x_min":0,"x_max":0,"o":"m 126 185 b 42 85 75 181 38 135 b 129 0 46 38 85 3 b 46 -110 122 -50 100 -90 b 226 100 163 -151 240 -4 b 126 185 219 151 176 189 z "},"“":{"ha":506,"x_min":0,"x_max":0,"o":"m 379 492 b 464 592 431 496 468 542 b 376 676 460 639 422 674 b 460 786 383 726 406 767 b 279 576 343 828 265 681 b 379 492 286 525 329 488 z m 143 492 b 228 592 194 496 232 542 b 140 676 224 639 186 674 b 224 786 147 726 169 767 b 43 576 107 828 29 681 b 143 492 50 525 93 488 z "},"”":{"ha":506,"x_min":0,"x_max":0,"o":"m 126 793 b 42 693 75 789 38 743 b 129 608 46 646 85 611 b 46 499 122 558 100 518 b 226 708 163 457 240 604 b 126 793 219 760 176 797 z m 363 793 b 278 693 311 789 274 743 b 365 608 282 646 321 611 b 282 499 358 558 336 518 b 463 708 399 457 476 604 b 363 793 456 760 413 797 z "},"„":{"ha":506,"x_min":0,"x_max":0,"o":"m 126 185 b 42 85 75 181 38 135 b 129 0 46 38 85 3 b 46 -110 122 -50 100 -90 b 226 100 163 -151 240 -4 b 126 185 219 151 176 189 z m 363 185 b 278 85 311 181 274 135 b 365 0 282 38 321 3 b 282 -110 358 -50 336 -90 b 463 100 399 -151 476 -4 b 363 185 456 151 413 189 z "},"†":{"ha":649,"x_min":0,"x_max":0,"o":"m 374 292 b 275 293 340 294 308 294 l 275 -22 b 272 -82 275 -42 274 -61 b 256 -136 271 -103 265 -121 b 392 -136 303 -129 349 -129 b 376 -82 383 -121 378 -103 b 374 -22 375 -61 374 -40 z m 275 306 b 374 306 308 306 342 306 b 511 301 431 304 476 303 b 607 292 556 299 588 296 b 607 421 600 338 600 381 b 511 411 588 417 556 414 b 374 407 476 410 431 408 l 374 735 b 376 794 374 753 375 774 b 392 849 378 815 383 833 b 256 849 349 842 303 842 b 275 735 271 817 278 778 l 275 407 b 138 411 218 408 172 410 b 42 421 93 414 61 417 b 42 292 49 375 49 332 b 138 301 61 296 93 299 b 275 306 172 303 218 304 z "},"‡":{"ha":649,"x_min":0,"x_max":0,"o":"m 374 126 b 275 126 340 129 308 129 l 275 -22 b 272 -82 275 -42 274 -61 b 256 -136 271 -103 265 -121 b 392 -136 303 -129 349 -129 b 376 -82 383 -121 378 -103 b 374 -22 375 -61 374 -40 z m 275 468 b 374 468 308 469 342 469 b 511 464 431 467 476 465 b 607 454 556 461 588 458 b 607 583 600 500 600 543 b 511 574 588 579 556 576 b 374 569 476 572 431 571 l 374 735 b 376 794 374 753 375 774 b 392 849 378 815 383 833 b 256 849 349 842 303 842 b 275 735 271 817 278 778 l 275 569 b 138 574 218 571 172 572 b 42 583 93 576 61 579 b 42 454 49 538 49 494 b 138 464 61 458 93 461 b 275 468 172 465 218 467 z m 374 454 b 275 454 340 456 308 456 l 275 244 b 138 249 218 246 172 247 b 42 258 93 251 61 254 b 42 129 49 213 49 169 b 138 139 61 133 93 136 b 275 143 172 140 218 142 b 374 143 308 144 342 144 b 511 139 431 142 476 140 b 607 129 556 136 588 133 b 607 258 600 175 600 218 b 511 249 588 254 556 251 b 374 244 476 247 431 246 z "},"•":{"ha":365,"x_min":0,"x_max":0,"o":"m 182 251 b 324 393 260 251 324 314 b 183 533 324 469 261 533 b 42 393 106 533 42 472 b 182 251 42 315 103 251 z "},"…":{"ha":918,"x_min":0,"x_max":0,"o":"m 135 165 b 42 72 83 165 42 124 b 135 -19 42 22 83 -19 b 226 72 185 -19 226 22 b 135 165 226 124 185 165 z m 460 165 b 367 72 408 165 367 124 b 460 -19 367 22 408 -19 b 551 72 510 -19 551 22 b 460 165 551 124 510 165 z m 785 165 b 692 72 733 165 692 124 b 785 -19 692 22 733 -19 b 876 72 835 -19 876 22 b 785 165 876 124 835 165 z "},"‹":{"ha":383,"x_min":0,"x_max":0,"o":"m 119 390 l 42 293 l 119 197 b 175 104 143 167 175 128 b 342 104 225 110 279 110 b 249 197 306 126 274 165 b 171 293 225 226 197 261 l 249 390 b 342 483 274 421 304 460 b 175 483 283 478 229 479 b 119 390 175 461 144 422 z "},"›":{"ha":383,"x_min":0,"x_max":0,"o":"m 264 390 b 208 483 239 422 208 461 b 42 483 154 479 100 478 b 135 390 79 460 110 421 l 213 293 b 135 197 186 261 158 226 b 42 104 110 165 78 126 b 210 104 104 110 158 110 b 264 197 210 128 240 167 l 342 293 z "},"€":{"ha":743,"x_min":0,"x_max":0,"o":"m 328 607 b 435 657 351 640 388 657 b 542 579 492 657 528 631 b 654 667 572 611 610 640 b 601 724 640 689 622 707 b 508 767 574 743 543 758 b 474 767 492 771 485 771 b 397 713 444 756 422 739 b 328 607 368 682 346 646 z m 346 768 b 128 538 236 738 163 643 b 28 546 104 539 53 542 b 32 481 31 524 32 501 b 28 418 32 458 31 439 b 107 428 50 424 81 426 b 104 386 106 414 104 400 b 106 360 104 378 106 368 b 28 367 83 360 53 363 b 32 301 31 344 32 322 b 28 239 32 281 31 260 b 121 250 54 246 90 250 b 440 -19 158 100 261 -19 b 531 -8 475 -19 504 -15 b 375 92 465 7 415 43 b 289 239 333 142 310 190 b 231 253 268 246 231 253 b 340 250 246 253 322 251 b 460 239 393 249 439 244 b 456 306 457 263 456 285 b 460 367 456 326 457 347 b 268 356 428 361 349 357 b 218 354 243 354 218 354 b 267 368 218 354 249 363 b 268 417 267 383 267 400 b 214 431 246 424 214 431 b 269 432 214 431 246 432 b 460 418 354 431 432 425 b 456 485 457 442 456 463 b 460 546 456 506 457 526 b 285 535 428 540 356 536 b 229 532 264 533 229 532 b 290 550 229 532 265 540 b 354 679 303 585 331 643 b 463 774 388 726 424 760 b 346 768 444 778 392 781 z m 428 57 b 508 11 443 42 478 21 b 582 13 536 3 564 3 b 636 53 601 24 619 38 b 715 228 685 100 715 161 b 565 349 715 294 675 357 b 436 125 604 258 542 125 b 347 154 403 125 372 135 b 428 57 369 118 392 86 z "},"−":{"ha":515,"x_min":0,"x_max":0,"o":"m 42 483 b 42 354 49 440 46 393 b 257 368 72 361 135 368 b 474 354 381 368 442 361 b 474 483 467 399 469 446 b 257 471 442 478 381 471 b 42 483 135 471 72 478 z "},"ﬁ":{"ha":511,"x_min":0,"x_max":0,"o":"m 358 756 b 308 733 340 750 324 743 b 261 696 290 724 274 710 b 303 694 278 703 293 699 b 325 653 319 688 328 668 b 256 621 319 631 297 610 b 386 556 299 564 349 544 b 446 592 407 561 433 574 b 436 715 471 626 471 679 b 389 751 421 731 406 743 b 358 756 376 758 368 758 z m 58 485 b -14 360 14 467 1 410 b 58 385 3 382 31 385 l 60 114 b 40 0 60 75 58 28 b 128 6 69 3 99 6 b 211 0 156 6 183 3 b 192 114 192 29 192 76 l 192 358 b 133 376 171 361 157 367 b 183 371 151 374 168 371 b 243 383 204 371 225 375 b 311 507 281 401 294 447 b 244 481 296 489 272 481 b 133 494 210 481 172 492 b 192 503 153 496 165 499 b 210 636 194 556 197 601 b 286 736 224 676 253 711 b 351 767 307 750 331 761 b 267 776 322 776 297 778 b 58 485 92 765 58 618 z m 488 485 b 326 465 436 467 379 465 b 346 351 344 438 346 389 l 346 246 b 356 176 346 222 350 199 b 415 68 365 136 385 99 b 489 18 436 47 461 31 b 478 114 478 46 478 83 l 478 371 b 497 485 478 410 478 457 z m 346 183 l 346 114 b 326 0 346 75 344 28 b 413 4 356 3 385 4 b 497 0 442 6 469 3 b 346 183 410 38 350 97 z "},"ﬂ":{"ha":583,"x_min":0,"x_max":0,"o":"m 294 732 b 260 696 282 721 269 708 b 283 700 267 699 274 700 b 357 601 325 700 346 651 b 367 490 364 568 365 528 l 367 314 b 371 263 367 296 368 279 b 411 156 376 225 390 188 b 513 60 439 113 472 85 b 500 161 503 86 500 124 l 500 354 b 499 517 500 408 499 471 b 482 642 499 558 496 606 b 390 750 463 689 433 728 b 351 763 374 760 361 763 b 332 757 343 761 338 760 b 294 732 318 750 306 742 z m 81 642 b 58 485 63 590 58 538 b -14 360 14 467 1 410 b 58 385 3 381 31 385 l 60 114 b 40 0 60 75 58 28 b 128 6 69 3 99 6 b 211 0 156 6 183 3 b 192 114 192 29 192 76 l 192 358 b 133 376 171 361 157 367 b 183 371 151 374 168 371 b 243 383 204 371 225 375 b 311 507 281 401 294 447 b 244 481 296 489 272 481 b 133 494 210 481 172 492 b 192 503 153 496 165 499 b 201 601 193 538 194 569 b 219 656 206 621 211 640 b 261 717 231 678 244 699 b 332 771 282 739 306 758 b 276 776 313 775 294 776 b 81 642 172 776 110 724 z m 583 1 l 583 11 b 486 61 561 18 518 39 b 367 219 414 118 389 156 l 367 128 b 494 -19 367 14 431 -19 b 583 1 528 -19 561 -10 z "}}}
